<mxfile host="app.diagrams.net" modified="2024-06-29T15:32:35.516Z" agent="Mozilla/5.0 (Windows NT 10.0; Win64; x64) AppleWebKit/537.36 (KHTML, like Gecko) Chrome/106.0.0.0 Atom/26.0.0.0 Safari/537.36" etag="_21HPIgnbTHjFe2IPPvc" version="24.6.4" type="github">
  <diagram id="C5RBs43oDa-KdzZeNtuy" name="Page-1">
    <mxGraphModel dx="1378" dy="738" grid="1" gridSize="10" guides="1" tooltips="1" connect="1" arrows="1" fold="1" page="1" pageScale="1" pageWidth="827" pageHeight="1169" math="0" shadow="0">
      <root>
        <mxCell id="WIyWlLk6GJQsqaUBKTNV-0" />
        <mxCell id="WIyWlLk6GJQsqaUBKTNV-1" parent="WIyWlLk6GJQsqaUBKTNV-0" />
        <mxCell id="aWw0s4DyDZp5R_XiqISa-1" value="" style="shape=image;verticalLabelPosition=bottom;labelBackgroundColor=default;verticalAlign=top;aspect=fixed;imageAspect=0;image=data:image/png,iVBORw0KGgoAAAANSUhEUgAAATsAAAF4CAYAAAArEF4FAAAAAXNSR0IArs4c6QAAAARnQU1BAACxjwv8YQUAAAAJcEhZcwAADsMAAA7DAcdvqGQAAAASdEVYdFNvZnR3YXJlAEdyZWVuc2hvdF5VCAUAACL1SURBVHhe7d1NyC1JecDxgMQBQYkGMQbNzTJBAoHZOgYSwYVBd4JwEXEjo4wouB7ubnDrRhiQzMrNDIyQLFyEwZldYNaSrWQjWQkRkpDFyftUd3U/Vf3UV5/qqpn3/gd+eM9X13nfU+d/qs/Fun/05MmT29e+9rXbiy++CAzxxS9+0bweuIrMOWKH4YgdRiN2mILYYTRihymIHUYjdpiC2GE0YocpiB1GI3aYgthhNGKHKYgdRiN2mILYYTRihymIHUYbG7vvvXF77/33b++///btNev2S712e9uN/d7tje9Zt2OkRx+7irn+8s/fe7j94T6/fM28HX1dGDsfF/Vif5hi95O3mYgXInbEbrTrYjc1bJa22DERr/XoY1eBOTZWMXbbC7KJYrFFbfXrN24v+1WR8t7PX04E0Edo9/ZP4ttkTH2/uoC+9kt9zDh2x3H9pNOPW6ifOfrZ3M+lxkSdVOx0APTcC3/PL9/e+PX+Guj5sD/+jfU+y23xa6qPd5jjMocPx8s9H4M11/V75WGM19SxD49Hd8XYHd/4Yn0Bjag1xS4OpbIEzwjSqjTZ7Oct1nAlxpbjpmJ3eFOs9jijVjF2huycWAN1fPzbt38yjunnT3KeJI/nqYhZGuY6sRujGLuQXh2pT1frxYpfbOO6bSJZn6Tuun1i+6BskzM7QY6P28dWqzRlG3c9bnxZrya2Y/K93mnF2Kk5Ebzm/ne+3e5fl/gDaZ931nULY55E1x2eT2EebSrmet1cRi8nV3byQuvwHR9XEzt/7GCVFkzm4xjWpDmwxo6Ptd0nkozd/iY4YLI2K8ZO/U71ddufD5bX1Xq89dq5uJnzJPxQy82DPZCGirluP1dcJR87/4L5F2N7AWVi7ZNCv4Cv/Tz+BEzHbnuxVbjC6+6NnZqQ26n1cqxl8u3HjT9lT09yVKlf2YXzrPT6H1+30P7hLXPQek3D607Pg2iub+MaP1fquaKvutgdRJ+imn8xo8e6IEYTIH18P5FOxk5PpAMdO0McOyfz8+qYo1oxdgd+Duyx0fwH7vZ4FRDzmOv8Sc6D9fbj8c7Fzvx+2yN2Q+Rj92CfDDLZjvE5vIjqhdMTyYydE09edezTsRP6uMZz16F9eM65SW2OvyF2ZxRj9/A66PkThiWeM62xC1+zw+3WY4150RS7B8E4D8ezniuuU4wdcIWa2Fm3A2e52H31q//4oYzd4RN5lf3ExQfC44jdcYXpFM86MIOL3de//nVWdhiKlR1GI3aYIhU74CrEDlMQO4xG7DAFscNoQezkAgA8VqzsMJxMPOt64CrEDlMQO4xG7DAFscNoxA5TEDuMRuwwBbHDaMQOUxA7jEbsMAWxw2jEDlMQO4x2d+x+8YtfJFn3ryHP50c/+tHtxz/+8UYuy/X+tm9/+9vuvt/4xjduP/zhD29f/vKXD8fBB9c9sbPmmmfdv+Sll166ff/73w/mm5A5JvNK5td3v/tdd19/WeZdfBx8sN0dO9mh4le/+lW4xc3Kun8NeT4/+MEPqgIWx04uy8SVCRzfFx8c98RO5lbPOedjVxOwOHZyWeaqzNn4vvhg6RK7b37zm7dnz551mXiC2D1+98au55wjds+HD13s4smmYyenGvo0xJ96+Pvp2/zj/UT/zne+4/7Xny77x+EaH5bY+dv81yZ6/sVzSn/oyhzSX8X4xwv5s59z8W24TlPsvvKVr9xeeeUVN8lkssl1euKJn/70p4eJ52/zjyk5Gzt/WSaSXtnF95Hjy2X5Xz+ZidxYtbG7d875yzlnY+cvxys7Pb+sx8ixiNx4TbHzE0jIdyZynZ94Minlev9nP/FkIsp9/eP08VLk+ehPReEDFk+cOGRyWccuNZFl1SeTzd+uV4G4Xm3s/LwRZ+acPlaKnwN6vvkPP39bS+z83PKXhVz2c0z+rOcsxmiKnfCftDKZZJL5iSfXyZ/9hPR/MybXyWP0MUrk+fRa2fn764nsyeSLJzPGqI2duHrO+TkQfyDq22pj5+9vzTc/L+VY/s9+HFyveWXnPzFlYvnJJhMvPpXwE9NPxBZXxM6ayCKezBijZWV39Zzzc8CaI/H8iOeTXLZil5tPxG4OF7sv/d0/VMXOTzJ/yqAnnpA/ywT099X3i4+V0zN2pclXMznRX23s/Py6cs75OdAjdkLOGHJfixC7OVzsPv3pv7y99KW/N++g+U9ZEX/K+tMG+V//iesfI/fVk7Lk3tjpy/66+C8gnj596i5bsYvH0JNTHiO36WOhXevK7uyc08dKuTd2+rKQuSHzTV8nf/aXrdjpQOo5Zh0f57jY3R7+k+D91V//jXknzU8wTyaUJxNSX9b3ayEv8tnY+ckp35HoT1eZYPr7E39bPJlFPAax6682duLqOefngBWUeH5Y8fFzS89DuV3PNz9//P31ZUHsrrfFTv77xCc+WxU8TU+0mHV/QLTELmbNNc+6PyCC2Ml/rcHzpxgW6/6AuCd21lzzrPsD4hA7+e/MCg9ocU/sgDPM2P3P//4fwcOliB1GM2Mn//3+9/9F8HAZYofRkrGT/373u/8keLgEscNo2djJf7/97X+44FkPBs4idhhti90f/vDfLm7yn8QtZj0YOIvYYTQXOwndRz7yJ7d//pd/dbH75Cc/d/vCF/7W3QgAj8UfSejk/y720Y9+0sVOTl3lz0+ePAEuIRPPuh64ioud3wjgYx/79O299/7NBU/+/JnPfM58EHAvYofRXOzk/4Mnsfuzz37+9scf/ZSL3W9+8++3F174lPkg4F7EDqMFsZMrZEUnoZP/XnjhTw8PAHogdhjtELvPff4v3Oru4x//zO2zf/75wwOAHogdRjvEDhiB2GE0YocpiB1Gq4jdq7c39Z5hb70a3v7sTbWf2Ju3V5O3vX9785m67cnT2+vv7Le9/87rt6f6sSm58TbynFO3xcLn8e7Pnhr3eXJ7+rN3k7ehXSl28vveXufauQFkFGP39Gdv3l7/lr+8hGF703/r9du777+73e4m6DYxH+77lpqk0X0lWjp+r771MKnjkMay46nrsiEMheMuYQ+jvMee2PWTi517TQgcOqtY2UVkZbVORBeWIFASBhW0iEziZDBcyPKBKo23xa/iWIvj8w3H2OOXfe5oloxd9WsHtGmO3R6DZZUXroJyUbDvv1ERNW9vGa/2DWONmXgssesrFTuZX/yecYXG2O0rnebYue/aUgFajpWf5MTuMUnFTn7Pbz5b5pn/zi75AQk0aIjdMgH3N3xDfFzoUqe3y3HC01MLsXtMcrELPhTd65H+agSoVRc7M1bp+Ojr3ORNnZ66iWx9coef7Mvj68ZzjGC50291TPeYVOyM50vs+srFLv4987tHD+XYWUFYHSehRGqPYnaSJlZQOaXxNrXHTkXRWGXyhusrFTvrOzt+9+ihEDt7NbVxsdhj40Lhw1gIzqkJnBvvcL+6kMrzsP721bofb7h+UrGLX+PDZeCkqtjp07+FmnzuFHe9XofHTVL9mPA+LjLG7cmweqnxtIbYxT9janxi11cydiKYO4QOfRRiB1wjGzvgAsQOUxA7jEbsMAWxw2jEDlMQO4xG7DAFscNoxA5TEDuMFsROLgDAY8XKDsPJxLOuB65C7DAFscNoxA5TEDuMRuwwBbHDaMQOUxA7jEbsMAWxw2jEDlMQO4xG7DAFscNoFbGLtkiPd/HV+8vFe8gFt8V7xUV75aX2povlxtvIcz63n11qzzprB12cl47dyXkBFBRjxz+Svcee2PWTjN2ZeQFUqFjZRWRltQbGhSWYiBKG9M6y2d1+K3YXLo23xa/iWIvj8w3H2OPHTsV9pVd2kerXEshrjt0eg2WVF66CclGw779RETVvbxmv9g1ijZl4LLHrqzp2xXkB1GmM3b7SaY6dTNpkgJZj5WNC7B6TutjVzAugTkPsltDtE68hPi50qdPb5Tjl72WI3WNSjl3tvADq1MXOjFU6Pvo6uZw8DXFhOR7DhzX8G7m68RwjWO70Wx3TPSYVO+P5Eru+srFLzgvgvHLsrCCsjgEIv/DPBiKxgsopjbepPXYqisZqgtj1lYzdiXkB1CjEzl5NbdzE3GOz/W3odlt60p6KR268w/3q3jDyPKy/fbXuR+z6ScWO3zOuUhU7ffq3UKspd4q7Xq/D44KjHxPex0XGuL146pIaT2uIXfwzpsbnTdhXLnbb66twSot7FWIHXCMVO+AqxA5TEDuMRuwwBbHDaMQOUxA7jEbsMAWxw2jEDlMQO4wWxE4uAMBjxcoOw8nEs64HrkLsMAWxw2jEDlMQO4xG7DAFscNoxA5TEDuMRuwwBbHDaMQOUxA7jFYRu2jX4HhjS73lUrytUnBbvE1PtH1UarumWG68jTznc1s8pbZxkr3z2OKpn5rY8TtHT8XY8e/G7rHnjddPPnb8ztFfxcouIiurNTAuLEGgZJKqoEWyG2BWbLhZGm+LX/XmncfnG46xvOkkfmze2Vc6dvzOcY3m2O0xWFZ54SooN0Ht+29URM3bW8arjZ01ZuKxvPH6yq/sFvzO0VNj7PZP3ebYue/aUgFajpWf2MTuMSF2GK0hdkvo9snXEB8XutTp7XKc8PTUQuweE2KH0epiZ8YqHR99nVxOnp66sByP4cPq/4Z0eXzdeI4RLHf6rY7pHpOKnfF8eeP1RewwWjl2VhBWx8kokdqjmJ2stasvpTTepvbYqSgaq0zeeH0RO4xWiJ29mtq4WOyx2f42dLstHZxTEzk33uF+dSGV52H97at1P954/RA7jFYVO336t1CrKXeKu16vw+OCox8T3sdFxrg9GVYvNZ7WELv4Z0yNzxuvL2KH0QqxA65REzugJ2KHKYgdRiN2mILYYTRihymIHUYjdpiC2GE0YocpiB1GI3aYgthhtCB2cgEAHitWdhhOJp51PXAVYocpiB1GI3aYgthhNGKHKYgdRiN2mILYYTRihymIHUYjdpiC2GG0ithFW6THu/jq/eXiPeSC2+K94qK98lJ708Vy423kOZ/bzy7cPy362WufI4rs2KX2T2RfO9yvGLvn+h/JDp5j9LPjLtUru6aNWIG0ipVdRFZWa2BcWIJASSxU0CLZnWcrJnVpvC1+1W+Q4/M9jlF3G9rUxo7ditFLc+z2N/yy0om3MU9PTvv+GxVR8/aW8WpjZ42ZfGw+5GhTFTtWdeioMXb6NK8xdhKW5MStOUWcEzs5fstpMerUxC79wQm0a4jdErp98jXEx4UutSpajlM+PZwTu1388+Me5djJ75sPGPRTFzszVun46Ovcyih1eurCcjyGD8v2t3Hu8XXjOUaw3Om3OqZ7TCp22efLG7CHYuzkteH7UXRUjp0VhNVxVSWR2qNorrq8E+EojbepPXYqiqk3GbHrphQ780MMuEMhdvZqauPe/HtsXCh8GAthyIYwJTfe4X51UZLnscdtWVH6n/fVt/Qxak+3USMfu8SHGHCHqtjp07+FmojuFHe9XofHBUc/JryPi4xxe/HTPDWe1hC7+GfU48envoSun2zs5PVLvbbASYXYAdfIr+yA/ogdpiB2GI3YYQpih9GIHaYgdhiN2GEKYofRiB2mIHYYLYidXACAx4qVHYaTiWddD1yF2GEKYofRiB2mIHYYjdhhCmKH0YgdpiB2GI3YYQpih9GIHaYgdhitInbRrsHxNkd6y6V4W6Xgtnj7pmj7qNotfXLjbeQ5n9viKb/ZaMUWVKiSjl0039jqCZ0UY/dc/7ux8f0St6FdMnbBvIjmG3CHipVdRFZWa2BcWIJA5XeYlWDkV075QJXG2+JXcazF8fkex3ggx3vn4U348MYjdn2kV3Yh8/UATmiO3T75lk/d+M2fDpp9/42KqHl7y3i1sbPGPDzWj1t4/mhSF7v8hyfQojF2+jSvMXYSlmSAlmPlT1fmxK4Ud5yTi528pi1fRQA1GmK3hG4PS0N8XOhSn9DLccqnKhNiFxyH2PVUv7IrfQgCdepiZ8YqHR99nfuUTp2euphYAVkmefg3cnXjOUbs3ApNHdM9JhU7d51exQpi11Nd7B4YryVwRjl2VhBWx1WVBGKPornq8k5M4tJ4m9pjp6Ioq0wXeBVcjS/M70bsMFohdoXVjJuIe2xcKHwYC5M0G8KU3HiH+9W9QeR57PGKV3MaK7ueUrHj3+rFVapid1zdqNWUXgHp8Ljg6MeE93GRMW4vxiQ1ntYQu/hnTI9P7HpKxS7+uoHQoZdC7IBrpGIHXIXYYQpih9GIHaYgdhiN2GEKYofRiB2mIHYYjdhhCmKH0YgdpiB2GC2InVwAgMeKlR2Gk4lnXQ9chdhhCmKH0YgdpiB2GI3YYQpih9GIHaYgdhiN2GEKYofRiB2mIHYYrSJ20Rbp8f5iwY6+0R5y0W6/4V5w0V55qb3pYrnxNvKcz+1nF24oauznx/5qXdixM37fq+aNXoFIMXbP9z+Sndj2HXerXtk1bcQKpFWs7CKysloD48ISBCofh+xW7BWTujTeFr/qN8jx+YZjyO280a5QG7vsnAEaNMduj8Gyyou3KU9PTvv+GxVR8/aW8WpjZ42pH8uq4jJVseP3j44aYycrHR+cxti579pSE3c5Vv4TfFbs9u+N8jFGi5rYsapDTw2xW0K3T76G+LjQpU5vl+OEp6eWCbGLyFgEr49y7PgKAX3Vxc6MVTo++rpsINaVU3wMH9ZwRVU3nmMEy51+q2O6x6RilwyaPK/0d5KoV4ydvDbFD0CgXjl2VhBWx1VVGIPj7Urt6kspjbepPXYqisk3GauNXkqxMz/EgDsUYmevpjYuFntstr8N3W5LhyEbwpTceIf71UVJnkf4t6/q5332ehDS8L64Rz52rKDRX1Xs9OnfQk1Ed4q7Xq/D44KjHxPex4XDuL34aZ4aT2uIXfwzBuPrsQSh6yYbO3n9Uq8tcFIhdsA18is7oD9ihymIHUYjdpiC2GE0YocpiB1GI3aYgthhNGKHKYgdRgtiJxcA4LFiZYfhZOJZ1wNXIXaYgthhNGKHKYgdRiN2mILYYTRihymIHUYjdpiC2GE0YocpiB1Gq4jdssdbcpujYBukaFulaIukcPumaPuo2i19cuNtWjbZDJ+HtcdesMsxWw91kYtduKt07esI5BVj93z/u7Hr7QSuu2Ts3IfZ/tpZrzFwRsXKLiKTcZ18biIGgcrvMCvhuGeb9tJ42xuj4liL4/MNxqg+DlqlYnd4jXkN0Elz7PbJuKzy4p2F00Gz779RETVvbxmv9g1ijakeKz9rMs64S3Jl537/0QdY8AEHnNMYO32a1xi76PQktBwrH5bxsZNjv/ls+Zn9d0jJWKNJMnbCvQbr75zQoZOG2C1v+j0sDfFxoUud3i7HKU/qObELAu1uS5+mo14ydvFrkv2QBOrVxc6MVTo++joXjNTp6foJflwthaup5fF14zlG7NzpkDqme0wqdut1Vkit69DOjl3Daww0KsfOCsLq+MYPv/DPhsEIUklpvE3tsVNRXFeZ1nd2xK4PYofRCrGzJ9/GxWKPjQuFD2MhOKeikRvvcL+6kMrz2E+hlxXl9vNG4x0u4zQ7dsZrymksOqmKnT79W6g3vJuM6/V6krow6MeE93GRMW4vfoKnxtMaYhf/jIfxg5+D0PWSip1wweN3js4KsQOukYsdcAVihymIHUYjdpiC2GE0YocpiB1GI3aYgthhNGKHKYgdRiN2mILYYbQgdnIBAB4rVnYYTiaedT1wFWKHKYgdRiN2mILYYTRihymIHUYjdpiC2GE0YocpiB1GI3aYgthhtIrYRVukx/9WhN5fLt5DLrgt3isu2isvtTddLDfeRp7zuf3s9g1FU3v5sVNxD7nYhfvZsXEn+ijG7nn/R7IDTZuCIicZO/dhtv+OrdcYOKNiZReRybhOPjcRg0Al/k2IVXYr9oqQlMbb3hjVUTo+3+MYu+zzR5NU7A6/fz5g0Elz7PbJuKzy4lVQOgj2/TcqoubtLePVvkGsMVOP5U3XVXJl537P0QdY4sMHaNEYO32a1xi76PQktBwrv2qaGztWdX0lYyfca7B+Z0fo0ElD7JbQ7W/4hvi40KVOb5fjlCf1zNjJz15xPFRLxi5+TbIfkkC9utiZsUrHR18nl5Onp+sneHwMH9btb+Tc4+vGc4xgudMhdUz3mFTs4uvkfqwwurJj1/AaA43KsbOCsDquqsIv/I+3K7WrL6U03qb22KkoRmHjzdYfscNohdjZk2/jYhF9mezDWAhONoQpufEO96sLqTyPPW7LijL8eRNBxV3s2BmvKaex6KQqdvr0b6He/G4yrtfrSeqCox8T3sdFxri9+AmeGk9riF38Mx7Gl2OlxsFpqdiJ8CsHPmjQRyF2wDVysQOuQOwwBbHDaMQOUxA7jEbsMAWxw2jEDlMQO4xG7DAFscNoQezkAgA8VqzsMJxMPOt64CrEDlMQO4xG7DAFscNoxA5TEDuMRuwwBbHDaMQOUxA7jEbsMAWxw2gVsYt2DY537NVbLsXbKgW3xdsnRdtH1W6jlBtvI8/53BZP+x57qe2tTuzDh4Oq2K3bhBW3/QIqFGPHvxuruPFrI4qcmtj5PQ+JHXqoWNlFZGW1BsaFJQhUfldfmbzJVVFFSErjbfGrjtLx+R7H2GWfP5oUYyev4TsPH4gPH67EDj00x26PwbLKiydiOgj2/TcqoubtLePVxs4aM/XY6oCiRj52/rUuzBmgQWPs9GleY+zcd22pWCzHyq+a5saOVV1fudiVPlCBMxpit4Ruf8M3xMeFLnV6uxwndeq4mxk7+dkrjodqydgFv39ih37qYmfGKh0ffZ1cTp6euoltTeYlrNvfgLrH143nGMFyqwV1TPeYVOzi6+R+xRijhR07feYgiB36KcfOCsLquKqSybpH0Vx1eeYKKq803qb22KkoRmEzg4q7mLFzH6rqQ07jwwZ3KsSu8MnqYrHHxoXCh7EQnGwIU3LjHe5XF1J5HvsbKV5Z+OuMoOIu9souxsoO/VTF7vhJq978+tNYh8cFRz8mvI+LjHF7cWKnxtMaYhf/jIfx5VipcXAascNohdgB16iLHdAPscMUxA6jETtMQewwGrHDFMQOoxE7TEHsMBqxwxTEDqMRO0xB7DBaEDu5AACPFSs7DCcTz7oeuAqxwxTEDqMRO0xB7DAascMUxA6jETtMQewwGrHDFMQOoxE7TEHsMFpF7JYNLbc95OIdY4PdZaM95KKdZ8N9yaK98mr3jMuNt5HnfG4/u3hD0XA799pjoqQqduueiOxnhx6KsXuu/5FsF9b9OMmdkdGsJnZ+g1dihx4qVnYRCcD6hndv/iBQ+S3MZfLe829SlMbbYlRxrMXx+eoxDuNVHxclxdjJ75p/JBsdNcduD4C9ZXY6aPb9Nyqi5u0t49VGyRpTP9b9OYppEFuclY+df60LcwZo0Bg7fZrXGLvolDC0HCu56nMmxG67vJxOEbp+crErfaACZzTEbgndHpaG+LjQpU5vl+OUQzIhdvHt2WCjRTJ2wWtH7NBPXezMWKXjo6+Ty8nT03XVdJzMS1i3vwV1j68bzzFi51YL6pjuManYtY6HZnbs9JmDIHbopxw7Kwir46oq/ML/eLtiBKmkNN6m9tipKBa+k+TNdz8zdu5DVX3IaXyFgDsVYlf4ZHWxiL7A92EsBCcbwpTceIf71YVUnsf+RgpXFofjcxrbjb2yi7GyQz9VsTt+0qrVlP401mFwwdGPCe/jImPcXpzYqfG0htjFP2M8fnj6a6wicQqxw2iF2AHXqIsd0A+xwxTEDqMRO0xB7DAascMUxA6jETtMQewwGrHDFMQOowWxkwsA8FixssNwMvGs64GrEDtMQewwGrHDFMQOoxE7TEHsMJqL3SuvvELsMBSxw2jEDlMQO4zmYsdpLEYjdhitInbRrsHxJorBhovRtkrRZozhVj3R9lGp7ZpiufE28pzPbfEU77EXbPFU+xxRlIsdv3NcoRi75/nfjY2P7y6zY24XqdjxO8dVKlZ2EVlZrZPxOBET26SvsrsTV2y4WRpve6NUb955fL77GNbGkfmfD/Xs2PE7x3WaY5ePQS5o9v03KqLm7S3j1cbOGnN7rDVe4WdAtfrY8TtHH42xk09ZP/Ea4iPcd22pAC3HSq76nIbxusROrRT9be5n4I3Xgx07fue4TkPsltDtYWmIj5uwqVOR5Tjl72XGx04uy/G3L8vfet18DmiXip3gd44r1MXOjFU6Pvo6N3HjoHguLNZEXsK6TXj3+LrxHCN2bsWgjukek4pd6vny/VE3udiF+J2jj3LsrCCsJDThqiqcmMfbldrVl1Iab1N77FQUU6vMzO8Cbapjx+8cnRRiZ6+mNi4We2yC71sKwcmGMCU33uF+dSGV57HHbVlR2j9v7ja0qosdv3P0UxU7ffq3UKspd4q7Xq/D44KjHxPex0XGuL04sVPjaQ2xi3/GYHw9Vnwb7pKMHb9zXKQQO+AadSs7oB9ihymIHUYjdpiC2GE0YocpiB1GI3aYgthhNGKHKYgdRiN2mILYYbQgdnIBAB4rVnYYTiaedT1wFWKHKYgdRiN2mILYYTRihymIHUYjdpiC2GE0YocpiB1GI3aYgthhtIrYLRsobnuMxbv4BvuPRXvIZfcmi/bKS+1NF8uNt5HnfG4/u3hD0WA799rniKJ07Iw9FIv/PglQVowd/0j2fnx3mTdeF+nYyWug5gnQScXKLiIrqzUAxzd/fqJmt2Kv2F24NN4Wp+qdio/Pdx9jCXu4GuWN2Es+drWrcqBec+zyMcgFzb7/RkXUvL1lvNrYWWNuj7XGK/wMqJaMXfUHFdCmMXbyqevf7I2xc9+1pSbxcqzkqs8ZHTu1UvS3uZ+B2PWQj936XZ3IfgAC9Rpit4RuD0tDfFwkUqd/y3HK34WNj51cluNvbzz+weZukrGLuN8/wUMHdbEzY5WOj74uO1nXT/FjPJawhp/udeM5RuzcKk0d0z0mFbvkm4vv7HqpjR2/c/RSjp0VhJWEJlxVhRPzeLtSu/pSSuNtao+dimJqlZn5XaBNW+za5glgKcTOXk1tXCz22ATfcRWCkw1hSm68w/3q3iDyPPa4yRsr9fPmbkOrZOyevR58eIWvD3BeVez06d9CrabcKe56vQ6PC45+THgfN4mN24sxSY2nNcQu/hmD8fVY8W24Szp24e+c0KGXQuyAayRjB1yE2GEKYofRiB2mIHYYjdhhCmKH0YgdpiB2GI3YYQpih9GC2MkFAHisWNlhOJl41vXAVYgdpiB2GI3YYQpih9GIHaYgdhiN2GEKYofRiB2mIHYYjdhhCmKH0Spit+zjltxyJ9iSJ9pWKbtFUrR9VGq7plhuvM2ZDR8Tj6kaD61ysQt2la6dF0BBMXaP/d+NFcnHVIyHc1Kxi3/H7jJ72qGDipVdRFY662Q8TkRZHamgRbK7E1dsuFkab3ujVBzLyz2m9edDPTt2y4dpeAbA7xx9NMduD4A1MXNBs++/URE1b28ZryF2m8NjWn8+tKiPXWHeAJUaYyefsn7iNcbAffeVCtByrHxEGsYjdh94duzUSttft35nSuxwr4bYLaHb3+gNMXATNnUqshyn/L0MsXtMUrET8jve/oKCf6sXndTFzoxVOgb6OjdxU6enLjDWRF7Cuk149/i68Rwjdm7FoI5ZfkzDeGiWi12I7+zQRzl2me/S5I0frnLCiXm8XTmx+iqNtzlxbOsx1eOhWXXsMvMPaFGInb262bhA7G/+4PuWQnCyIUzJjXe43/2xqx4Pzepit6zwWUmjh6rY6dO/hVrdrF8gOzoELhT6MeF9JHaH2x4UJ3ZqPK1X7ETNeGiWjJ3+fT8gdOilEDvgGnUrO6AfYocpiB1GI3aYgthhNGKHKYgdRiN2mILYYTRihymIHUYjdpiC2GG0IHZyAQAeKxe7F1980awhADwWxA7Ac+DJ7f8B68KBNMTV23cAAAAASUVORK5CYII=;" parent="WIyWlLk6GJQsqaUBKTNV-1" vertex="1">
          <mxGeometry x="780" y="142" width="315" height="376" as="geometry" />
        </mxCell>
        <mxCell id="aWw0s4DyDZp5R_XiqISa-2" value="" style="shape=image;verticalLabelPosition=bottom;labelBackgroundColor=default;verticalAlign=top;aspect=fixed;imageAspect=0;image=data:image/png,iVBORw0KGgoAAAANSUhEUgAAATMAAAEpCAYAAAD/FcWjAAAAAXNSR0IArs4c6QAAAARnQU1BAACxjwv8YQUAAAAJcEhZcwAADsMAAA7DAcdvqGQAAAASdEVYdFNvZnR3YXJlAEdyZWVuc2hvdF5VCAUAABxzSURBVHhe7d3fj1xXYcDx/RuaH3ZwHAc2hWBU8gOTBoQhlHrDVqAUEAHLOA95MH5AtpHbtKImjnBUV7Ky2appI6vbPjiJhdeqLEMceaX+8GJLrqJZxEO7Uf2KFPU1FRWiQjqdc+45d84599xfM/f3fCN9lJ25956Z2Z379bkzO3cX7tnxkLhnx6LYdf+HxZ49e1Lt/MI3ZxIaEwCqsrC5eVu8884/q6CFVjBkkHY9+rmpEDMAdVv47W9/K37zm/8TOz70CfHAA+GVJGIGoMsWhP7vd+7+aHAFIxmzJ8Std+8St75nX2c7Kd44siXe+CwxA1C/KWMmQzbe9Poj1nU2GbJtcefQqrpMzADUzYnZjp0PKfff/6DYvfvD4v7dD8Yr2jH70Zt3CfHux8SP4ni5nntmS9w5ckk8py8TMwB1c2K2fvkn4q2L/6SC9tSXviY+/9QzYud9H1FRu/f3v6Jj9Yi4896CuPOKG7CJVXHtxLa4dmByHTEDUDcnZuY/+fWvf/1r8ctfvi/uvvejKmrSjsXHxK5X9mTOynYd2HBmZRIxA1C3YMz2fORT+qvo+l/96n/F++//t7hrx8Pi4vWs18o+J14+NHmtzCBmAOqWGzM/bPKF/w/efMKJ1UT0wv/PnznpXE/MANQtjpn8PTPz36effFp/RcwA9EMcM3kYaf774IP/0V8J8a//dkt/FcWMw0wAXRTHrMh/MmbqDYD39oiLVqwc8g2AExviZes6YgagbuVjxq9mAOigKWKmf2k2Y3amfmnWmp0RMwB1mypmfJwJQNcUjpk8s8Zd95iYSXzQHEB3FI6Z/DTAXTs/HohWPmIGoG6FYyY/t3nvA58MxioPMQNQt8IxW/rys+LeT/+RCtM0QjcOAFVZsH9BNu2/tX98S+x59Evivi9+KxiqeRH6BgLohoVHH/8D8Ytf/IfOlvufPKX2X/7VX4u7d3xcfOIrz4vdj38+eBg5D4gZ0G0LH9r1EXHf/Z8Uf/6Dl8Xtfx+J/9z+LyH/yMlrf/sP6pxmO+5bFLsf2CMe+/YxYhb4BgLohgXzxYd2LYp77n1I3H2P/NNzD4mdMmK7J39+jpgRM6DL4pjlqSpme09vi2fXLKcnH0pfPLblLlM2xF6z/aEN97Ind3tp6ZJYtpfHt78q9tvXOzbEw8QM6LQGY3ZS7FsZh2HlklgMLtcxylheKGZZ2+uQLR+zTlE0HnP/IWudeL0tsW9pch0zM6DbGoxZNPNJhMNSb8x0TK2ZYCpiBvROHLOlly6Ld15/Xuy1FtqqillrM7NAoFIRM6B3VMxkyG7fvixePBBeSarkNTN9mKdehwpER8XILA+tN81rZmZ7tS0xA4ZqoUjIpKreAFCsqNmvX9U6MyNmwKAtbG7mh0yqNGaGF5haYxYIVCpiBvTOQpGQSbXEzHtToNaY6dty3slMQ8yA3mn898xsKj5WnOqNmbk97x3V8Zj8agbQf83FTAXCe3HeC5OJTeo6Kmb+cu8wNbHci58/RuhXNYgZ0Dutzsz6hJgB3UbMCiJmQLcRs4KIGdBtxKwgYgZ0GzEriJgB3VYqZpw2O/y9AdC+xmJGDIF2hfbrIWnsMPPJrx6c68NUoE3EzELMgP4iZhZiBvQXMbMMMmZnr4rR6Ko4FVrWiHNifTQS62dDy9pjPhYW/FB+4iNl6Z+VbY36uXbh+3pcnL8xEptrxwPLmkXMLMSsDlPE7OgFsTm6Kc4fDSyrhDy9+JbYd2wcLe9D+1Hk3M+sNq7I4+91zOr5B46YWYhZHToYM/khexUxecokN1zqL2sV+RsKdao95lUiZk3qWcyiJ4f8VzfiPqkPrt0Uoyvn4n+ZFXnZGuPUFXt7yY2Zu9wLndqR5HXREy64Th77vmnOE9dfbu6/um3reouzs3jbl90p1OxLBSv6AzD2oWb0ZwJnnJmlPb6Y/zPWj6HI4/fWCT72rNuXy25cEAftdeRle/s8gfvp/Hz85fH49nPKY99Hb/uioSRmlvZjpp/k/pPPCpqKmfohm8C4/8qpUNlPTrX9JEb+8mg8K1bWE8kZM7FDpvDub/Jf4fHlwBPX2SnVdSkzE3/80PaZooClnyxT/4Ur9VrZNFHLe3yBn7Ev6/HH/O+rlvj+e7enltvPgWicwjOrlMcz2X58+Yodx9D4KfddSoxf/P4RM0vrMQs+id0nSyI+znL5g/e2d2IWWO4/sRJPJn2bBf/1luEr/MRV/J1hLGNnTo5fMrbqPG7WC/qB87pFrKhlnUwzl/f4nJ9HiozHPxH+vga/F/ZtBm6/zPcvPjKIrwv8/DzJ8dOfE8nxiz//iJml9ZilPNHtJ0PmDza0E9hj6lCZ6bvNjVnejpQm9MROPnHV4/Fuv1jMovH9bZWCO2NyJpb3t05LnIpcy3p8hXbMqWOWEhZ7vBljllw3eZvqMXqP390mPWah751CzJThzcymjZl6EuXsJIV2pDT5MYue6PbOFNgm4z7IJ3tiZy3MPoT0ZLzoX+ZNgdzHl/IPlqPQzyAchGCY7NusO2ZqfPe+J7dJj5n6/hW8Lz5iZunia2b+zpEZs+ATazyetb16YmX9KzdTzPz7Fz1p5X0wT1z/9qPH5wcq2i4YrcDOUljaIWXW311Q22T/lXpb/uPT35PMHTbj8cdSgpD4/nhjzRgzd3v9fLXG95+v8XPQGT/5PI+p5184dLbQ84aYWdqPmaSf7DH3iefGIkA/GeJt1eXAkzftNmaMmf0El9bPRpcnT07v8Y2f0PL+JHZcsxNoznJvmZT35FdktIKvf5lDzfDMrWjIIkUen/8zTovSZLkbC3dbe3loneT3LvB8KBqzMfv5I8d2H5/785fP1VPy/vjjO8/TMXu5v2zMeQzOOpPHQsws3YgZgHw6mtY/7MTMQsyAntAzV3vGRswsxCybfXgRVOJQBd2Tdggby3p5ozGTw1j/0JyYWYgZ0F/EzELMgP4iZhYZM06bDfRXaL8eEmI2EKGfGTBPOMwcAGIGELNBIGYAMRsEYgYQs27Sv/SY/zGk6KM/6yvEDCBmXUTMgNKIWa8RM8DoUczMGSbcMw/4ZwxwP1bkngFBfSRFfqzIPuuC9zEj/2NJ/vhZZ10w4zvrlPkYk3dGhODMzL7vZj1iBvQvZs5OrnbsySl5VIgS58uaBG0SGXOdntno8dTyjM/Y+eOZ7U3Q4vFNwHSc8g8Xfe79inmPl5kZMNG7mLkzJTNbk1/LHds/11ggVk6M3DGj5WnnKwvdvhtA++usbfKFY+aeG8taj5gBw4iZui5w0jrDiVnO2Q2ioJltk7Ow8GwpWq/emIXGImaA0fOY2Tu9/Dr7LLBFYmZzD1vDYbLHJGZAe3ods2gWNZk9+a+Z+crGzF/fvz3/NbF6Y+aPH62jZp7EDOjnGwCxQJj8dyPt+OTFLGvbtHXs4MwasyiW7vjSZHv3exD/DQFiBvT9MBMSH2cCiNkgEDOAmDUmeQjrKfPLtR5iBvQqZkhDzABiNgjEDCgZM06b3V2hnxkwTxqLWdtCjwnAcDR2mNkmYgYMHzEDMAjEDMAgNBqzxWNb4tm1bdfKJbGolp8U+1a8ZWsbYq83xt7T9vItsW9JL1u6JJbH1y0fOzlZ/9CGWu/Lf3Im+JgADEfzMYvj5YtiZsdIhcta378cxVEHTccsuZyYAfMgjtnSS5fFO68/L/ZaC21txCyaWenZmYqVNRPzt5HrrmyI/StmHblsQ+yTt3nm74OPCcBwqJjJkN2+fVm8eCC8ktR8zKLLz55eVZfTto2vlzEbrysv7z80Xibjpy8TM2D4FoqETGoqZpPXwyYhk9S21mXneitmdsRk1IgZMB8WNjfzQybV9gZAHCh3ZqZeHysRs4/Hy+U4W2J5fIgpD0+JGTAfFoqETGr8MFO9RjZ5NzNtWxM583/7uvjr1avio4HHBGA4Ov9uphu39DcA7IA55OEnMQMGr9Mxc97N1Mvt7dV4ejkxA+Zbt2NmAhZHSl82r7dZY/mvscWIGTAXGo1ZW/g4EzB8xAzAIBAzAINAzAAMQqmYcaZZAF3VWMz6HsN5F3pOAF3S2GEmf52pv4gZ+oCYIRcxQx8QM+QiZugDYjZo58T6aCTWz4aWFUfM0AfEbNCIGeYHMRs0Yob50aOYHRfnb8gdM/r/aLyTSptrx531Tl2ZLBuNropT1rKDazfF6Mo5sevs1ck68rK1jrt9cnw1RspyM76zjjd+nqzxdx29IDbVY4oiFa3jPkbnsWlOzLzlzrKU8f+CmKEHehczZwdUO+ZNcf5odFmF6MYFcVBvE4VhsrNPQmGuc2cuarm1vc8fz2xvghOPbwKm4uAFI0Pe+GY8+3ugHrO5Pe/7kZiZ+cv9+5c2/k/+LvicALqkdzFzZ0pmtia/ljuuvSOb6yY7ZjIW7pjRcn+M8LqG2kYH0P46a5uw/PFDcbSXy/C427uPP7nci2Ha+Jvr4juB5wTQJYOImbrOmlX4nJhlzLwktU68bXKWZO/oiprtROslxy8Ts/zxo8dYJrb2mNFy+/sSc2KWHJ/XzNAHPY+ZvbPKr9N29EiRmNnUrCVePxwme8zZYpY//mwxC8/MHMQMPdbrmKkd3Zo9ufFJKhszf33/9sxs0MQiOX6ZmOWPnx0z//ajkMmZV7x94jU1DzFDj/XyDYBYIEwqaPY6VhySsXFlbZu2ThyKsVljJmWNnxcz/3tk3vl1xlBBS7kNYoYe6/lhJppAzNAHxAy5iBn6gJg1JHkI6yn5y7VNImbogx7FDG0hZugDYoZcxAx9UCpmnDZ7foWeE0CXFI5Z6AluC20DAE0pFbPQIYhEzAC0jZgBGISSMTsp3jiyJd74LDED0C3lZ2YHNsSdExviZWIGoEOmOsx8+dC2uHPkkniOmAHoiClfM1sV105si2sHiBmAbpj6DQA1Ozu0SswAdMLUMVOvnelDTWIGoG2zxUy/EUDMALSNmAEYBA4zAQwCbwAAGIQpY8avZgDolqliZs/KiBmALigfMz7OBKCDSsaMD5oD6Kap3wCwETMAbSNmAAahVMyyhLYBgKZUFrN5F/qeAWhOJYeZ846YAe0jZhUgZkD7iFkFiBnQvlIxO3VlJEYj31VxSu7URy+ITXn5xgVxMN7Rj4vzN0Zi/ez467NXA9tqV86p9Q+u3Qws1+PrscLLJhL3UY+dP75mHocRb39OrNvXO66JFwPfMwDNmWpmpqLgRMtE4KbYvHFTnD9qrrdiZq0b3D7j+kg01uba8fg6Fa54fR271O3zxh/TIbNvQ0bYv//msZrHycwMaF/lMTu/Np6BxbOZemMWzfbMzCqaOSXCYykyvj2TS0XMgM6JY7b00mXxzuvPi73WQlvhmB2VUXEPDeuJmR8ffRiYun3O+F6gMhEzoHNUzGTIbt++LF48EF5JKh6zaHkUsCliFr8OpcXr6XjZy/xZlLoPelnZ8dUsj5gBfbVQJGRSmZipr9Xy+mZm6vWytENCK2r2YWnm+MQM6LWFzc38kEmlYqbCI7+uL2bR7SXfzXR4gcoc3wtUJmIGdM5CkZBJ5WI2Ng7J5tq5+mI2Jmdn9uUk902B7PGjdbPH04gZ0DnVv5sZz2zGcbhxday+mLnvZiap8azl2eOb9b37O74N//4TM6B7SsUs/5dm7ZilxMFcnxaztPFDMdPXqdfO1O2nbVtkfE0F0loeel2OmAGdM9XMDC5iBrSPmFWAmAHtI2YVIGZA+4hZBYgZ0D5iVgFiBrSvVMyQLvQ9A9CcwjF77NvHxH1f/FZwRy7iuytvZgrdJgAUVSpmux//fPAwq4gXzr0udj7xmSBiBmBWxAzAILQYs++LC0e2xIWniBmA2bUUMxmybXHn8KvqMjEDMKtWYnb4G1vizpFL4rC+TMwAzCqOWd5ps6uL2avi2oltcW3ZzNKIGYDZqZgVOdtsZTFbvu7MyogZgCoUPm12VTE7c3jyWhkxA1CVwqfNriZm0Qv/P//G94kZgEoVPm02MQPQZY2/m8lhJoA6NP+rGfINgBPXxRliBqBCLfyeGb+aAaB6LcRM/9KsNTsjZgBm1UrM+DgTgKq1FDMTND5oDqAaLcZsgpgBmBUxAzAIpWLGabMBdFVjMZt1+74LfU8BVKexw8wnv3pwpu37jJgB9SNmDSBmQP2IWQOIGVC/3sVs7+lt8eya5fRqvGzx2Ja7TNkQe832hzbcy76lS2I5sf222H/IXu+k2LdiLzfjrYr91jaufxG/F/ieAqhOj2KmI7JySSwGl+uYZSwvFrMtsW8psEwJ3YdxxKygKt44zMyA+sUxq/tvAMwes2jm486SXHXHLJr5ZWxvEDOgcSpmTfwNgKpi1t7MLJqVLR87GVjmIWZA4xr7GwCVvGamIqFfhwpEK/iamb3eVK+ZmShFMSVmQDc19jcAqnoDQLGiY8el3pkZMQO6rLG/AVBpzAwVp0k0OMwE5lfPf8/MfVOg3pjpXwvJGt8gZkDjeh2z6DWySZzqjlm0fBw051cxxkHlVzOA1vUnZiYkDjdMUdwy1lEx85db8Qrehv/rIPpd1VggjsQMaFzPDzP7gZgB9SNmDSBmQP2IWQOIGVA/YtYAYgbUr1TMONPs9ELfUwDV6U3M5j2GXRd6zgBN6s1h5jwfpnYdMUMXEDPMjJihC4gZZkbM0AXELODUlZEYja6KU4FlhZy9Ot5+JNbPBpZV6pxYb+R2shEzdAExC6g1ZkcviM3RTXH+aGBZaVPErNLbjxAzdAExaxoxA2oxPzFTsyV/Jz4uzt8Yz8KunFOXD67dVDOqSMrMTM+6YjcuiINmmQrFZJkTGW+ZbXPt+GS9PP7tjzm34y/Xj63w7XvbFwklMUMXzNHMLAqXs+OmzVLUDh2IWeFZTcaMqfAYAep+2dv6tzO+bOIl6YAlo5py+/74oe0DiBm6YK4OM9XMy5pJqcv2zm9kxqzITKqemMnX8tzbzjvMLBHwseT4+vXD0PfIQszQBXP2mpnc+c2OHO3owRCkxUzSQcs+DKsjZoEwBW4nevPCVSxm+pDb21YhZuiBuXsDIJ59yJ3afr3LlhUzW+Kwz2gnZtFrfvb9nn1mVgQxQxfMXcxMxE6Nd/zUHbdozFLDkBEzvWyaaLiHydE4cuZkbkfNyvzD6MRtZdx+apxdZvZnbpeYoQvmL2bx4ZQfq7TDLGvnVju7u9wOlomHLxEOb5ziYXPv4/rZ6PLkPkwCp4wPD4Ozrazbz3mMzjo6nMQMXTCHMcPsdDT1a2nEDF1AzFCamYFymIkuIWYdYV6HSpXzjmIzzGGs+7oaMUMXEDPMjJihC4gZZkbM0AWlYsZps5Em9JwBmkTMoIR+5kCfcJgJYoZBIGYgZhgEYgZihkEgZkOkP26U+BhSQvR7Y+srxAz9R8yGiJhhDhGzuUbMMBxzFDNzhgn3zBP+GSXcjxV5Z9ZQp/yR15mP9QTW8c864Z0zzT+zhn37atmVc+46ZT7GpO7fZOzgzCx0VgxihgGYu5g5O7nasSefMwyfD8yKlRULM4baxgQn9fxmkcR4OoomaHHEnPFSopRJz7j87bzHy8wMQzJ3MXNnYvb5wOSO7YfIi0IgLipAJoB6uT/bi4Ru393eGUsJb5MvHLPkuc2IGYaDmJnrrFmXz41Z+sxL8caZBCUcmGi2FM3W6o1ZaCxihuGY85jZO738ukioctaxOYd14TA1NzMjZhi2uY6Ziof1Gpb/mllC2Zh56/u3Z2ZxJjr1xswfP1pHzR6JGQZgLt8AiAXC5b6bKfnxyYhZ6J1CLyj++PbyWWMWxdIdX5ps734P4r8hQMwwAHN+mAmJjzNhCIgZiBkGgZj1RPLw1zPD3wggZhiCOYoZ0hAzDAExAzHDIJSKGafNHq7Qzxzok97ErAtC3xcA3dCbw8y2ETOg24hZQcQM6DZiVhAxA7qtVzFbPLYlnl3bdq1cEotq+Umxb8VbtrYh9npj7D1tL98S+5bMMr19PJ60KvbL9cbXPUjMgE7rX8yc2NiiGC0fOxlfp8Jlre9fjuJogmZiaAVu6ZJYJmZALww6ZrsObYzjpGdnKkz2TEyyt5GzsC2x//RWPIa8vf3H5HYb4mFiBnRaHLOlly6Ld15/Xuy1Ftr6FzM90zq9qi6nbTu5XsZsHD4ZPbWN3F5fJmZA56mYyZDdvn1ZvHggvJLUl5g5r5npkElqW+uyc70dMzticn1iBvTCQpGQSZ19AyAOlDszU6+PlYmZjpY8JJXXLa+MDzEPjdchZkAvLGxu5odM6t1hphUneTlt2zhy9vqJr7fE418nZkCXLRQJmdTHNwDk7MyNW8YbAF78JqI3BogZ0G3z826mXm5vr8YLzcYcxAzog2HHzATMe10tfr3NHssJn42YAX3Qq5i1iY8zAd1GzAoiZkC3EbOCiBnQbcSsIGIGdBsxK4iYAd1WKmacNjv8vQHQvlIx2/P0YfHA0nemMuv23/zh34gHn34uuKyIp79+EB328MMPAzMpFbOHPnNALD75h1ORh5mzbP/8n50Rv/vZpeCyIpaf+To6ipihCqVjFno9qYhZXzOTMXvgU18ILivi6a/8MTpq6WvfCj7ngDKIGVpHzFAFYjaPXntbjEYj8dPXAsuKmHV7DzFDFYjZPKozZj/4sbg5uiUu/iCwLAUxQxWIGapFzNCSOYrZKXHxZ3I2Ef1fziykm2+dcnas1bcny0ajt8WqtSzaUeV1r4mfpq2jZy2xn/1YvGAtf+GtW85y+/bVsrdfc9cZXzbLs0X3yX880Vj6Pqr7P7nt4Mwq6/5nbe8tszn3KTD+nxIzVGDuYiZ3oHgnVDvWZBahQmbtvE4IJGuHNWOobUxw1PL0WUliPC9AccSc8VKiE6C2d+IZPWY/cOZ2E+Pm3P+JlO2lrDFSljEzQxXmLmbujm1ma/JruYP6O5q30wbi4gREL0/GQwqHxd6+eIxS+LFQl72Zo5IVsyK3N0vMkuMTM1SBmJnr9I4WH/5Y3Jil7KiGN85kh08JgJodRsGZOWZjcqZo1lfjBQ9T82IUuv+2KWMWL3fHJ2aowpzHzN4p5ddFQpWzjs05jA2HqdKZmSRvU40ht027rxkxsnmH4RMzxMymx3/rh8QMs5vrmKl4WIdh/mtmCWVj5q3v356ZpZgoVBIzE7HXxmOnPpaCMUt9vFnbR8sK3Wc9PjFDFebyDYBYYGd3382U/PhkxEzNNNzt/R3eH99eXk3MTDSTt22u98Xj59z/3O0Nb5y88TnMRBXm/DATXUDMUAVihtYRM1SBmPVE8vDXU/iXa7uHmKEKcxSz8I6E9hEzVKF0zEInPixCxmyW7WXMODnjMHFyRlShVMw4bTbqEnpyAmWUitksf5DkuytvZgptYwvdJwAwSsVslte8Xjj3utj5xGeC5LLQNgYxA5CHmAEYhIZj9n1x4ciWuPBUWsyeELfevUvc+p67LTEDkKf5mdnydXHnxHVxJhizsVf2CPHeHnHR2paYAcjTymHmmcPb4s6RS+JwKGZjF68vCPHux8SP9GViBiBPS6+ZvSqundgW15bDMdv16CPiznsL4s4r0WViBiBPa28AqNnZ4VdTYqZnZ9cfUV8TMwB5WouZeu1MH2qGYqZeO9OHmsQMQJ52Y6bfCEiNmX4jgJgByEPMAAwCh5kABoE3AAAMQksx41czAFSrlZjZs7JQzOxZmUTMAORpPmZ8nAlADRqOGR80B1CP1t4AsDkzswBiBiBPqZhxplkA3bRH/D+Bt0t0pLVIXwAAAABJRU5ErkJggg==;" parent="WIyWlLk6GJQsqaUBKTNV-1" vertex="1">
          <mxGeometry x="473" y="160" width="307" height="297" as="geometry" />
        </mxCell>
        <mxCell id="aWw0s4DyDZp5R_XiqISa-3" value="" style="shape=image;verticalLabelPosition=bottom;labelBackgroundColor=default;verticalAlign=top;aspect=fixed;imageAspect=0;image=data:image/png,iVBORw0KGgoAAAANSUhEUgAAAOMAAACBCAYAAAAysg0dAAAAAXNSR0IArs4c6QAAAARnQU1BAACxjwv8YQUAAAAJcEhZcwAADsMAAA7DAcdvqGQAAAASdEVYdFNvZnR3YXJlAEdyZWVuc2hvdF5VCAUAAA/aSURBVHhe7Z0/zxy3EYfzMWwYiQyoEVzFhooUeSMYCASoNZDYhl2mcPW6cEoDCqBChQFFrWE3cScBiaDChYsgNtxKqYx8nc1ySO7ODIdL7u1xj+/dr3ig93ZJ7r95drgr8u5Xt27dGize/eh6ePP9D4c37v3pJFj7BMA5k5XREgSAS8LyoiWLMr71298DcJFARgA6ATIC0AldyvjOw/8Nf/6W8fDptMO3r1/LdcQPwzth/Vuf/CA/K4r1HfefDQ/4+rh9apst57B97ILHL4dXr14Nzx8b63blq+F5F/vRP53J+Gi4+2QM7CfPhtvGzjpIpoX1VTIu1Q8iPrj+Yl42tnn1CSszUmynJZ99N/z06ufh68+MdZGbLGPN8Z0hncn4zXA1iqADn9NWxi/8zaAiy3UvYzdAxlq6lHEpyJvKSFnx9XD3vrFOsUnGkLUmXnylynw+fP0jWz9CwUxBKpdHfvr2c19XlbEk+Pjbn+26cd24P6JMsn8F9PGNiP3IHX/N8Rn1V4legK7reDOmf3OPIPpxZVrvb+ZX1/ExZ4zDWJbHinoMir2w/p4Z+Y4awS5OklWuRsZcfarbWsYxU/DgDgE4B1QQcUmAqsxhZyQv2cvhS1UuBvskoRKkOuBJFL5vej9Kxx+XZY5Pt792/wpM8REFC/E499aeDldcTrE+9Kwo/sZyMbb4Td5qb/zshOxPRnWQ7sTw57eiBFsy4y4yarx8052fgo3LYnCwjGpbARLwx++Gj9XfS3VyfPlCl7VvCjNG+wvHl7bvl63O3hnS6+oFE+8QBHw9/9tL5qVzf/u4ovZVpo3bfLtbGSNKkKIEW2TkdzBrPaO4HwtQ8IwByokBlspgcLCMGTHYDWCbjFbZdJtLx09kj8+3r+sSO8qYvO2fEkZZRqsucSNkFAfVWMawLX7icxwqo+8G8synAvhGZ8ayjMXjd6zMjMekJCOtF/G1PTNG+u2mBvTBFyXYJGPcHu/Tj4xtis+x3AEyUlZgwe6DkweYD97lO70vsxyUloyGDBT4SpaDZdT1w7Gw9svHP9czt5k8k9rE7KuPv0R6XaWMlNnY+hgvtTKmz4wzfcn4wcvpOXFGihUPPluGZNTrVTc3Wa/k1W0Yd7JDZeQBSozSpXd7VWYkCSoKynl9rB+DW8Pbj4Ea4W1vlTGWn9v2n+dt1Bz/SOb4rHWO7PkRx1KmJGOUjMeGE7RaRtcGex8ScXW6z4wAHEaQ/kjPknsAGcFZEnsIa7uppwQygmp09zahiywUu8Hl58regIwAdAJkBKATupMRgEvG8qIlWRl/c/9TcMb868U/iTt37oBOWJTx9u/+CM4QyNgnRRmt/jS42bguWJTRuvbgNEDGCwQy9kmljOmwI32Bwc0BMvZJhYx+jF+vAqbjN0EJyNgnFTLyQbb9ARnXAxn7ZJOMNKreZUw+s0Jk0JBV4zo+Wt7VefJsuBsmeD64fjqVrRE/NyPimEOvaBsv1HfQaPHVrAUx/pKmRLkpUnx2hJofqWc9qPb1cfIZE+b+VQyDg4x9kpfxs/8wiTjWFKg47YmLa3RvSdpQPwjspqvEdlw9mqO2oktMgdgoM05BPgW4l2oSgkRi8qv5iPGzayMuozGlsb2FibsOv30ur9x+sn96+xkgY59sz4xi/iGbQ2Z+bQZbTzL6unze2pRtpzrLNJfRylQh+K25f6lsUg7RZliv2/DYcxd5/XT/6uY7QsY+2S5jblIvk40vnzLfTZaRlsmJu4LKzEcEIWPdWVyfBZMsR9nYZ0vIeF60k/FMMyPPfFZmFNTIyBHdXmTGS6OdjMYzI5WP2fJIMibPbQnx5Yl6cVJBEuy621na9loZVXnaPt9vtX3IeF40lNHh684vf1i39VgyjlC2IuEcafDH9aUg1XgZltv2QvIyTNaSjEt1A/LY5HrIeF5UyGhf0BtFCHod6CXSYD8PIGOfXICMPlscpZt6JkDGPjlvGWM38EChICPYk8vopgIBZOyToozg/HDXNspoTXIFp2FRRnC+QMb+yMroujIAABvLma0symg9bwBw6UBGADoBMgLQCbvLeOeRHFc64YaxuaFrpYHg42ca2iaGw/EhcWHsqrnOs1wfTFSPMMrMBLl0wpjf8nDJMNzwHw9NZ7bSXsbs2FVZ1mH++GW2PpiAjNvoXca3//rf3WXkg8fdZ8h4bCDjNk4pYxCBpIhiOmHc30eX0X/mN4BtMvoTF3+tl4bFWXc/NXNCBCrdMd2Y1jgNy6HGuKr6evicnvnBt0/rXqz/DpuJcEePdU3J9P7lyhmY+6eHB57w/FFdV563sWr4It8vIzYc6hxTub1lfOMv/55EoO4jn+40yeiWpwgZ9fpJriAfX6cy8XL9ErOEU4DQRWNTmvTncOKn8uxCxGV8crFfn58i5QOJB5+/+PGiT4Em2quXZSaT8fTxqXJ/+/6X4ZdfDL7/O61P9k/t/6nPn9/+2N4koFpfTch4ul5yPU6UGWcZnw5X47/uW9zcnEYp4/Eyo/VFVMv1S1gn2C/jgaEvQBos/GKEAIkXP6y3L759gXl90RaRCYoitozp8dnlcqT7F5aF83Pq8+dllJlWbL+ahW2JtkK53WX84OUo25gNnXSjJE4MJ0789+jdVGrPeJvaQEa/zP9Nd1aNCKb8nZsIARXrzoGXCXwWQGmw20FRxtqW1ZYsV5UZLRlp2enPX2sZ07ZCuVPJeHcUgmb5O1lChmwi44jLjvzz8WWUF9i6swtqgolDwRHL2xeYB/ipZSxhycgD9NTn78JkdM9pUTgvj3tum+Q8sozHfZuanmC6kPziiYtvsDaYVPlkeyELRBlqZaSgGOvlA9+WTLbvy8jss0yyf2r/T33+Wsso2/dl6DrsLuO9b/z31zAZ/IuclTKS0JwomyFjFD48Oy7XLzGfvAl1lyfohMty08UuBdNS3UAUyVq/VUYfrLJ9WU6eg/hmWe9jjrR941yc8PxJWVj5WhmN7ROsPt++O6/u8wlkvOnD4ezABvWkNwvgwNjU1UDGrUBGG8i4Gsi4lZssY64LP7HhuCAjAJ0AGQHohJPICACwsZzZCmRcwDovALQC3dQMkBHsDWTMABnB3kDGDJAR7E1RxjgEzsOHv4Wha7mhajRcTq2vma+ohsvZ62qw6qtxtsa4V79Pr4f3PoCMYF8WZSQRWcDGQOUBzceWivLJ2NVUAGrPEIKXz7ZfJK3v9z8IHW4W8ncn59+iRGYEe5OXkWZtLA0ET4NdzLowB5L7YI911sqoZ3UsY9SnfZrrCznj57A/kBHsTVZG/h04UzCLgNXB7j9PXVFTxpDd+KyMahlV+0VSGfm2PezmoDIlZAR7syyjEfhaRvFMxssvyRgE9JlJtTHJWWi/iFHfyqoh214pUSEj2JvNMsbMk2SdWhkn+TSF9ovI+g4vvxYySiv3FTKCvTmsm0pSqGBXz2O2jCHwg1RrZEzaL5LKGJfJlzb2fkBGsDdHfYHjspeUR9WnZbMMq2QcEe0XsWSc35byspAR9EBexnuPKJh5kFLQTtnJCPbFt6leBN7VXCvj1repcv9nICPogQUZ3X/6+4CeXoCIgLUyTyjvhAtZkL9AkWWjHLLMouy8/WlZDrXvjoz4kBH0QEFGGbSXBGQEewMZM0BGsDeQMQNkBHsDGTNARrA3izJeOtZ5AaAVWRnf/eh6ePP9D80gBaAGK65AnkUZf/3eH8wuHAAlION6ICNoAmRcD2QETYCM6zkLGf0vBclfIzoN637/cC/iSCc9AoqgIYZ8pJIeLqhHMtUNR4SM6+lexprfe7jRMq79DcPVOJleD3evR+nUkD8vqZ4MwAkiinpPh6uK4YiQcT1nIWM/dCijGyNMMrmB+lK80hxRL2vtwHwJZFxPcxn5j006kkANv0Y7l/EZLv8rQnPgyjJWZpQ/Fip/7DP+cKgss7qLWfrBT70+/hBnctwz4pezVP21+0dCkXA+y/GuKsmYzYxp+TVAxvW0lXEMJB48Xh4mTQjIpQCryowUsFrGIBn/FVsqF4WcJYzbT/avhGjPoTPj+Jlv3zrepcyo2684XxIvVH7+aOiG0rOglpJ9P9C0rB7IuJ59u6kq8ChrFn7y+WAZzSD3AvrMw/9eqpOHflJa/P5jqZu6bptp+3XnbIKmsbFuZjLHNMKknGSFjHvTWEYfnLybpTOTDjbNwTJay0bmYN4qo7X/qYy0PXUO6rbp29d1iUoZ00zoBdPfdDDDBUQ3dW8ayhiCKemmzYFXc5fvNzOWZUy7veu2aWXGengXVLHw0oa/1KG/hcz1QMb1NJTRB+YcTEFOHngkUeEZiMoUBDGzYNgek13KsVVGfaOYewHxeOhmw24kfvu2wKZ0NceeI9clXfrqkvDtDFPmDJ+lvGP2VDLH7M+vI2RcT/MXONStCjx/7AJPBZcqk+1aTutj/Si3hrc/C+I5PEvZyH2Ib2bnoFTbH28MZrZT50CsT86PDPosTjozq8Wuqp050y6sLz+XMUSO+8huPJBxPfu+wAFnSrjpsF4IZFwPZASbid1vdFO3ARkzyK6xQeHF02UQu+Fp1x4yrgcygiZAxvVARtAEyLieRRnxtRtgC1ZcgTyQERyEFTNgG+imgtVAxjZARrAayNgGyAhWAxnbABmPQRgOVh6m5v9frmo4mznQWw1Fi2NHFWJIW4PvuIGMbYCMx6ChjHwKU/KdNdn5iZ6kfEIQUU+zWpjV4YCMbYCMu7JNRoeY1lSQsdV33EDGNjSUMc5gkDMb9IwFOexMztigMY9u2BmfuaCGoelha7J9uW05bMvevzpRAjTLo1D30FkXGRnFFKgaGbPrM+0b6LGnkLENzWUUwUeBOQtBIiXz/WYhYxDMy2RmofXZicdh+1xesf10//T268lkPHW8x8iMXsYgmPnMyOUL3dBkuYPP6ufLUyDjPjSX0cpU/qK6wNQDjA3ZFuYg+vW6jYA5N5HXN/Zv9XzGiC1ZOnexhYy5zMdhUk7Ph/UyaiBjG04iIy1TXTyOkDGb+Tzxru1h4lJWSrMcZWPKlq1ltI5/u4ziOa9axggXMCN7BZCxDTvLyIPR/b0c+DUyckS39+SZsYWMIcPFlzKrZTzOd9xAxjbsKqPudupnRs1aGWV5v33+zCi331pGvT++DM/8y6Qy+hcy7O3nWhnDM+ba77jx520+V5CxDbu8wJkwxCIheRkma0nGpbqeWYB0/XYZY5Bq5jblOUi/I2eJkAWdLBGdxaJMCi+bUX9ax/Fd17mM8V8d8Y1wuBaQsQ07d1PBzSTc1CBjUyAjKBMyY8zokLENkDFD2gVWqMEH58nczeZda8jYhoYygnMFMrYBMoLVQMY2LMqIr90AOayYAdvIyggA2BfICEAnQEYAOgEyAtAJkBGAToCMAHQCZASgEyAjAJ0AGQHoglvD/wHJmM0jkz1LWQAAAABJRU5ErkJggg==;" parent="WIyWlLk6GJQsqaUBKTNV-1" vertex="1">
          <mxGeometry x="880" y="600" width="227" height="129" as="geometry" />
        </mxCell>
        <mxCell id="aWw0s4DyDZp5R_XiqISa-4" value="" style="shape=image;verticalLabelPosition=bottom;labelBackgroundColor=default;verticalAlign=top;aspect=fixed;imageAspect=0;image=data:image/png,iVBORw0KGgoAAAANSUhEUgAAAwQAAAFBCAYAAADJ8WgUAAAAAXNSR0IArs4c6QAAAARnQU1BAACxjwv8YQUAAAAJcEhZcwAADsMAAA7DAcdvqGQAAAASdEVYdFNvZnR3YXJlAEdyZWVuc2hvdF5VCAUAAEVESURBVHhe7d2xayTNdvdx/xnOnmBD42C50S52ZuzMzgwGsRgn5r7GRl4ci80uDsQDThYEL1xY5GQE9w0UOFqsC4sSBfqP+u1T3dVddfpUT4+m+uzM9Df48Giqu2u0q9+cqjM92udP/vzP/7z50z/9U+Bof/Znf9b88ssvAM6EvGat1zJwSsgpsD4aAlRDQwCcFzZaOAfkFFgfDQGqoSEAzgsbLZwDcgqsj4YA1dAQAOeFjRbOATkF1vcn8kIDarE2HQBOk/UaBgBsz5/87d/+bfMXf/EXAAAAADYoNAS/+c1vABcSOmscWAuZgyfyBk/kDbXQEMAVxQveyBw8kTd4Im+ohYYArihe8Ebm4Im8wRN5Qy00BHBF8YI3MgdP5A2eyBtqoSGAK4oXvJE5eCJv8ETeUAsNAVxRvOCNzMETeYMn8oZaaAjgiuIFb2QOnsgbPJE31EJDAFcUL3gjc/BE3uCJvKEWGgK4onjBG5mDJ/IGT+QNtdAQwBXFC97IHDyRN3gib6iFhgCuKF7wRubgibzBE3lDLcWG4Hf/76V5eXlp/vh/f2se/81vftf8oT3+8vLH5vf/xzoOTFG84I3MwdPp5I01egvq5O23ze//t9vz/eE/reOt//xDOP7yv79vfmsdx9mjIYArNmfwRubgiYYAnmgIUMsRHxmi2OBwbM7gjczBEw0BPNEQoJaD7hDEsS40FBscrlS8fvt//9hl6//9bvy6NeYv5i3RnhuvT/M65vQPze/Sufvj8ZrJnBS6i2Rnbj5P+fE2R9ZiGMd65bup2JLyBu2YTMVrZb1V8wzzL1mj02tbyXOPNfT33TntsTgvTtfeNXWQ79XydfF3RkOwJ6//5/fNH/tjv+/n6q4dm4vh2v45x2v0MX3NTGOC1SxuCNJCk6MhwHLLi1fUF4xJIenszef//tEuQIX58k0hLoGZudk8qU1Tql8MS3llEcPiBjRalKny9YvX6D01b3I9DcFZKK2pdh669a+83u7P27QhGI1NqBKusY5134/1vVJL/S1sCMYf5PBDGsJAQ4Dl9jYEk2Jj52s4Xy9m/eOx4OkGoJtPXz9m/A/9Y1yKUuZSWR6Gd2n77LSGfIV8GrfX4zVDnrBVZt6OztR0Dc5r3v41eq7mZZuyWINxFpbUt/FnLVkYsxabyUl+jLwO+Zms0UZmhwzF55LnHZ9jfN4O2TsNyxqC4Qc/hiMPWH4tULK3IZgsVn2xSYpPpj8/y6tcPylMeV6HAjRBQ3BpzMzN5GmaxVaWpzGbE+k12CQrb8dnarreZhu0BWv0XM1LGwK9WcNpK62p9s873Zine7e8Id2f1/axkbnhuonuuSbHJ3NF6fcGLwc2BEYnyA8OB3hrQ9DlcczaUOz68yeL2dKGIC14uEhW5ubyNC5a40I3HFebt6EeAr3ZhuDNmZpu4oY55foFa/S+mheP0xCcF3NNjXmIP+shH5KFMWvDz1rlZ39e02uMhmBYdwuS58vzNjYmMkd2DVa38CNDyQ9pYixQwD7HNQSG/vzJYranIUgLUooN3uUpNwQGyVMhG0Gfp3HBTI0LI7ZrdoNmWZSpPQ3BkjV6T82b1FCchcPy1mWhWP9aIQ8L8jqek9a9cd1OdZmyjxXX90LjivUs/qXi/IcpoZoWKGCftzYEWYFqz9HnT/K6ryGQMaPo0RBcnr0LppGn8d3VVpuh32Wbr26O6QaOhgDlGndcpqb1azh3UuPieYfVPBqC81TK27jJtrKQN5B/+M/8I0NhDpXX3+o11WwIRJrDTqkhiFmbNATJawJ+ig0BsIbiYgms5PjMJQvZ0LACtmV5I1OogzUVtdAQwBXFC94Oz1zp4xfJO61AgZ03MoV1sKaiFhoCuKJ4wVuVhoBb2FhocUNAplABaypqoSGAK4oXvJE5eCJv8ETeUAsNAVxRvOCNzMETeYMn8oZaaAjgiuIFb2QOnsgbPJE31BIaAgkUAAAAgO3hDgFcSeiscWAtZA6eyBs8kTfUQkMAVxQveCNz8ETe4Im8oRYaAriieMEbmYMn8gZP5A210BDAFcUL3sgcPJE3eCJvqIWGAK4oXvBG5uCJvMETeUMtNARwRfGCNzIHT+QNnsgbaqEhgCuKF7yROXgib/BE3lALDQFcUbzgjczBE3mDJ/KGWt7cEPz3f/93kXX+En/3d3/X/Pu//3vzH//xHwN5LOPx2D/+4z+Gc//+7/++ub6+bv7qr/5qMg9O1zHFy8paZJ2/z1/+5V82//Iv/5LlTUjGJFeSr3/+538O58bHkjs9D07bWzNn5Syyzl9C8qTzFjMm/401LWYz1jucj1PKm9QrnbeYMclWXF/lXHksmZPs6Xlwuk4pb+zhztubG4KXl5fmf/7nf8J/Nev8JSQw//Zv/7YoIDpM8phidvqOaQgkWzUzFzddSzb5krO0IZDHktW4mOJ0vTVzkqvaNU42/Us2+bohOCSr+LlOKW+HrIu6IZDHsVnF6TqlvLGHO29HNQT/8A//0Hz58oUwYbFjG4KamTtkkyU5oyE4T8csmLVrHA3B5TulvB2yLtIQnKdTyht7uPN2Ng2B3pClYZKild6iSouYnJcei9fHBfaf/umfwn/TW6dYz7k0BPFY3JCl+dOZSouaZCi9ZZpu/uKCK5nTx7Cec2kIYj4ke2n+dKbSWhXPi8fi9XJMcirZvLq6CsfY3Pk4l4Yg5iPWrpi/v/7rv84yJdLMputten2skZI3+W96DOs5l4Yg5kNyJ4/T/LGHOw2LGoK/+Zu/af71X/81BEcCJGNpmMR//dd/TcIUj8Vr9nlrmOJjXfj0OTK/PJb/xjARIl9Li9exmYuP58QMxExZx+JCqPMnj/UdgjRf1jUylxS0dHHF+pZkzqvGvaUhkGNWVvU5QuaPi6mcqxdXrO+U8iYZiJmyjqXrY5q/+FhnJ81XPCdeE+tdOifWd0p5k7WPPdz5WtQQxFAI+cyZjMUwSdBiYOTrGCYJl5wbr0vnK5EfavpOmNDFZmmYYlji+ZEUMyli8TiLpa+lDUHMjXhL5tK5SmIG0rzF4hKPxc2Wzp881g1BzFZ8LNJFVb5OMwsfSzJ3bN5EOl+JZCHNm4iZknzEGqbzFx+n9UzXPCF5jAuyHGex9HdKeZMM6LzFeiTH0nqU5i8+TtfHNFtxLK2D8rXMFzMLH6eUN8kBe7jztfgjQxIU6TAlIBKcGCYZk69jyOJvqMuYXJPOsY9VcKJDwxTPT4MZSYBimChevpY2BGLtzJUKTnos5kPnTx6nDUE838pbzKXMFb+Oz4P1Lc2cR42Li5l1LM2Hzl98nGZVjll5i02ArpHwcUp50+uiPpbmQ9cneZxutuR8K29CjukaCR+nlDf2cOdt8R0CCYv8V8ISAyRhki5SvhZybgxbDNch1ghTPF8jTD/H0uLlkbmYASsjOh86T/LYagjm8iTH0ozCx5LMedW42g3BXJ7k3LRGwscp5U0yUMqIzofOkzzWDcFcnnSNhI9Tyht7uPO2qCGIwZFuUb5OwyTkawlVPDc9T881p2aY9oWFMP0cSxuCmK81MxczYBUcnQ+dP3mcNgRCFs90AdVkrjSj8LEkczFba9e4mg2BroHavuNYxynlTTJQqjk6H7o+yeO0nkmtk/PTmpfSNRI+Tilv7OHO20F3CITuLiU4co78VwIl4/EaOTcN2j7Hhil9HMf0Z2jlX0CQx1aY9HOkBVKukWPpXDjc0obg2Mylc5XEDMSft3Us5kNnQz8Wkg3JWzomX8fHaZ7i8bSJSDNmzY+3WZI5rxp3bEOQXhvH0k2b5Eb+1Q35WrIjGZKxeDx9Dp2xNIt4u1PKm/xs48/bOpbmI82G9VhIPtIx+a/kTf5r1Sy9bqYZs+bH4U4pb/JzZg93vg76HYL0sYQkkpClj9PzDnFMmGI44ufL4nUSCP3Zs/R8wuRraUMg1s5czED8eVvHYj50NkTMVppDOZ7mLeYnnp8+FukCmWbMej68zdLMedQ4+VmnNSeV5kPnT8RspQtkzEnMW3pMzk+zKdLn0BlLs4i3O6W8yc9W15z0WJoPXZ/SbMUcxlzGvImYH50nkdY0eZxmTD8f3uaU8iY/Z/Zw52txQ6Cl4dGs8wFxSEOgWVmLrPMB8dbMWTmLrPMBQd7gibyhljc3BNJRlljnA+KYhsDKWmSdD4i3Zs7KWWSdDwjyBk/kDbW8uSEA3uKYhgB4CzIHT+QNnsgbaqEhgCuKF7yROXgib/BE3lALDQFcUbzgjczBE3mDJ/KGWmgI4IriBW9kDp7IGzyRN9RCQwBXFC94I3PwRN7gibyhFhoCuKJ4wRuZgyfyBk/kDbWEhkACBQAAAGB7QkPwyy+/AC4kdNY4sBYyB0/kDZ7IG2qhIYArihe8kTl4Im/wRN5QCw0BXFG84K2UuXfv3jXv379vPn78GM5ZSs6X6+R6a15sm2TEGgfWQN5QCw0BXFG84M3KnGzmP3z4EI69lVxPUwBNsmGNA2sgb6iFhgCuKF7wZmVO3uGX8WPJPHpubJvkwhoH1kDeUAsNAVxRvODNytyhHxMqkXn03Ng2yYU1DqyBvKEWGgK4onjBm5U5GatFz41tIxPwRN5QCw0BXFG84M3KnIzVoufGtpEJeCJvqIWGAK4oXvBmZU7GatFzY9vIBDyRN9SyqCG4eXhpdl/sY8AhlhQvydvL97vmyjgGHMrKnIxlPt83z6+vzevj7fRY6/axPSbHjXP03Ni2uUyE2vbSergxj6/h6uuT6/PBVzFvX3Yha+W9202zc84iTtt8Q/DprnmSwMyGClhu7wZKMvd91+y+PzV3n4zjwIGszMlYdP3tuXn9cd/cy6Z/0hBcN/c/yo2C0HNj24qZkA3aT3ijg4bgss3n7aldT+3MhVzQECBRbghCMyCbsqvm7jsNAerYt4GSIvX09YpFDNVYmZOx4PN989xv9sNdAL3x//VxthkQem5sWykTP6umUUsvW7EGxYYg7OP0cbk78NTsHsgGRgs+MkRDgHrmN1CStb54hYZ019wkx+PCNtx2b0nzMF4rOe1vgwaqEPa3UKfX4pJZmZMxzWoIZOz5233zGD8u1Hr8Nb9Oz41tszKR1iwR19NQ04bxpN71dxNuhuN9LUtrWLaRS+teK3lXeNoQ5OdSB89bsQalGdKbfjnWjk2yodbIxblJPk2SH1O5TDIur4l0jvC9pHcz+u+fjw77oSGAq9kNVPi4UCwA09zFxXMYC8Urbvq783XBSQvKzYNacFXDgctkZU7GtGlD0H9c6PWxuY1jcsfg9bm5/xzPoSFArpQJvfnSG6DseL8xixumWPuG48Md/O5aOX+sld0mLGs6hufNj3WP1RsnOCvFGjRsqPXPeFxbp5mbnhczmG/gr5qbL/3XOovt892F87qsFTf9w/cnx+L6Pc4j56bXYn00BHA1t4Ey3zHQC2jyOM+mkVPjLsOIhXArrMzJmFZqCPI7AtMxPTe2rZSJvH5Z66rUpL5eZZul1mTTNb8up7U0e149b3+cjdf5Ktag5Gedra3JeJoNvf5ac+Trb8e8ThhZy9fdJO/ydXvuXTvXuJ6zPnujIYCr8gZKioO8Q6Dl7xgc1RCEx/bcuFxW5mRMK39k6DoZoyHAvFIm8vq1p95NNlPp5knoetc9TueyGoLwdXLOwNjo4TwUa1CaoWQttJvFwj5PraGhKZC8DNksXNfK8x6l5ydft99r+J7ke5Zr5HknzQTWRkMAV4uKV8IuXvF4objE42kxU4WtW2BpCLbAypyMaVZD0H1ESH9kKHnc0nNj20qZyOuX1KuZ+nNQQzCtfcW6GTdc/Xk4f8UapDIkmdh9zdfBNBtpZgaFjXm4rh83rxPmmp7nPj7/zUMc63NOTn8KGgK4KhWvJUUlX1DF/KKYNQG6OMljGoJNsDInY53b7BeGB0ljEP5Z0uFY3gwIPTe2rZQJXb/STVV6XjDZTM01BPrNDXlceiOlO8Z6fjmKNchc8/J1NsvGZE3sMtad3379oOaKc0+uW/g7BCI0HPk/jSrNwRN7zp+ChgCuzOIVNu6lzfm4gOkFNc+mkdPsrkB3fLxFvlOLKC6VlTkZq0XPjW0rZWJav7o3QoaaFOpSsjlb3BD0cw/ztLUteYNl8ryhLibPSR08a8UaNMmQZCb/WU+yETb3YzbSzXye1TSL0+vGdbhbv4dj2fcjuhxPmgY9P1wsaAiAethAwZuVORmrRc+NbSMT8ETeUAsNAVxRvODNypyM1aLnxraRCXgib6iFhgCuKF7wZmVOxmrRc2PbyAQ8kTfUQkMAVxQveLMy9/HjxzB+LJlHz41tk1xY48AayBtqoSGAK4oXvFmZe//+fRg/lsyj58a2SS6scWAN5A210BDAFcUL3qzMvXv3rvnw4UM49lZyvcyj58a2STascWAN5A210BDAFcUL3kqZk828vMN/6MeH5Hy5jmYAFsmINQ6sgbyhFhoCuKJ4wRuZgyfyBk/kDbXQEMAVxQveyBw8kTd4Im+oJTQEEigAAAAA28MdAriS0FnjwFrIHDyRN3gib6iFhgCuKF7wRubgibzBE3lDLTQEcEXxgrdS5vhXhrAGyYg1DqyBvKEWGgK4onjBm5U52czz/yHAGiQb1jiwBvKGWmgI4IriBW9W5uQdfhk/lsyj58a2SS6scWAN5A210BDAFcUL3qzMHfoxoRKZR8+NbZNcWOPAGsgbaqEhgCuKF7xZmZOxWvTc2DYyAU/kDbXQEMAVxQverMzJWC16bmwbmYAn8oZaaAjgiuIFb1bmZKwWPTe2jUzAE3lDLTMNwU2ze3lpXqKHG+Mc4DBLitfNQ5u373fNlXHsMJLhp+buk3UMW2FlTsYGvz42r6+vvefm/nNyrHf7WD6m58a2rZ8J6hpGxbx92YW92+6LcSzo93js7dArNgRXX3dJwblq7r6/NE9fr7JzgEPtXSw/3TVP33fN7nuNBY+FE/sagtvm8fWxue0fX397bjf+4+Pu+Gvz+O2+eaYhwALrZ4K6hlExb9IQtOvoU+HNtauvT7zZi8zyjwyFcNV41xZbtm+xlCIljWcoVkcXKhZO7GsIlM/5xv/2sf9ajaf03Ni29TNBXcOomLfYEJhZ6TK0e6ixzuJSLG4I6mzQsHXzi6XcieqLl9wpeNk1N8nxmMHwkaL+o2z5XavuTtZ47C5bOLvr7/pz4nh+zZBxqwEOt2Dz7wmnz8qcjJlKG38aAixkZ6KrM7svshFLa01af/KNW6hX8dzW+NGPaUOQn0uN2pJiDerXsBtr7ybH2rHJvi6scWPm8uuS7LaytTes19ax/Jo0m7KOp3OE7yVdc601GKta2BB0P9TyZ9GAZWY3UOHjQrEAxAV0PB4XvWEsFK98Y58WmK5xUA1BtpDqa9LnnC66uoDhPFiZk7Gp6+b+x2vz+ng7PUZDgIXsTMSNf9wQxY3SWGNCvRo2YO35D+NmKN8s5bVJb6TCY70BxMUq1qBhQ63XsnGdy7KSrafjeXHNy9e/q+bmS/91aAbS626au3Bel/F0zcyymm344+sjzzXrra8FDcH0hwq81dwGynzHIFnYpgvdWNisOwrmwpleb10jRao/Jz9fF1WcCytzMqaFXxz+cd9cG8doCLCUnYmkVvVjeQPQyjZISlar0lo0nbc7rmshLlWxBiV5ytbWZDxd4/T6a82R5bVnXifMPKfZTXPaft2ee9fO1WVZcs16622+IZAfKJsgVFTeQElxkHcItDF/sw3B3uJjXB/ybTxnnCddhOVcoxji9FmZk7FU968Ipb9MrHymIcAydiamG3epR9lGStewSX2yGoL9dROXrViD0jwla1m6gR/XRKuxzK+Tx6EpkHwNOS1c15qu1yI9P1+/w/cU11l53sl6jrWVGwJdnIAKFhWvhF284vGkoKjCFYSxmYZgb9EZ55fvwyp6OH1W5mQs2tsMiM80BFjGzsR04yT1qNgQ6HqY1be0IZB52fxvWbEGqQyFNexrvk6ma2K61g4Ka2S4rh83rxPmmp7nNT7/zUMck2y3359cm6318FBoCKbFC6ihVLyWFJW0eHXSnHbvlKVzyJxL7jCYzxuF528XbqMo4jxYmZOxIGz0pSFQ+t8j6P4ZUn08bwz03Ng2OxPTNVXqUVZ7ZmpdeGw2BP0x6tNmFWuQ3pDLY7VGZjkLx9PmMl0f26+T32nJ5p5ct/B3CERoOPL1VZqDJ/afP8VsQ5Dfgsw3V8BbmMVLvZOf64qKFAe9SE4X2e7cmNfuX/RQC2d2/fSa7rrp8dmmASfNypyM1aLnxrbZmTisIdB16elhV7hD0One/EhM6hwuVbEGZXkSksE8N5M1MWzuxxyl+cwzNt5lsK4rrcn59yO618WkadDzw8WCXyoG6jm/DdR08cV5sTInY7XoubFtZAKeyBtqoSGAq3MrXuFdEd5tO2tW5mSsFj03to1MwBN5Qy00BHB1NsUr3gKd3OLEubEy9/HjxzB+LJlHz41tk1xY48AayBtqoSGAK4oXvFmZe//+fRg/lsyj58a2SS6scWAN5A210BDAFcUL3qzMvXv3rvnw4UM49lZyvcyj58a2STascWAN5A210BDAFcUL3kqZk828vMN/6MeH5Hy5jmYAFsmINQ6sgbyhFhoCuKJ4wRuZgyfyBk/kDbXQEMAVxQveyBw8kTd4Im+oJTQEEigAAAAA28MdAriS0FnjwFrIHDyRN3gib6iFhgCuKF7wRubgibzBE3lDLTQEcEXxgrdS5vhXhrAGyYg1DqyBvKEWGgK4onjBm5U52czz/yHAGiQb1jiwBvKGWmgI4IriBW9W5uQdfhk/lsyj58a2SS6scWAN5A210BDAFcUL3qzMHfoxoRKZR8+NbZNcWOPAGsgbaqEhgCuKF7xZmZOxWvTc2DYyAU/kDbXQEMAVxQverMzJWC16bmwbmYAn8oZaaAjgiuIFb1bmZKwWPTe2jUzAE3lDLeWG4NNd8/Ty0rxEDzf2ecABisUr5G3X3CRjV1+f2uw9NXefkvOAA1mZk7HOdXP/47V5fY2em/vPyYb/18fkWOvxNrm2o+fGts1l4ubBfz0NdZT1+2IV8/Zl17x8v2uukrEuf/k6C0TFhuDq6y7ZiN00u7aI7b7k5wCHKhYv3RBIMVtcuCSfNA6wWZmTMVNoAB6bW+tY3zw8f7vOxvXc2LZiJowNmgcagsu2NG8hBz8hfzgfiz8yJJ3l09cr8xiwVLF4pQ1B+PqQDT4NAcqszMmY6fN981xsCP6iuX2kIcC8UiZ+1sachuCyFWtQ2hAc9AYbtmpZQ2B8nAN4i2LxGjJW2txfNXff+9vtQdo8JOP6HRF9PjbHypyMWa6/PZsfC+rcNo/6I0UtPTe2zcrE8FGhXrzbXqxR/WbuZjje18SwsevPzzb53V384ZiugzPn8kbfeSvWoNgQFPdvpcyo8SCuyYV1WEwy26IRPSszDUHyg0+KC3CMYvHq7wo8tZkzP5rWHt8NC1eXzXEhmzYRYRGcXRSxFVbmZGwkG/3C7xC0QpPA7xBgoVImdA2arVH9xj/WuHAs3WD19XKoee35Y93sNnRZ0zE8b37Mqp04L8UaFDbo7Zpa+vnOZCaVfTpkbh1WmY1v1llz4jQdcIeAHyyOVyxe/QInDcGSjft0kUuLXleo8rzKOdwl2CIrczJm65qDx1+tY31z8OO+uU7G9NzYtlIm8pq1p0aFzVzyRpxuAMzrR+kmbtJoqDf45PiwicPZKdagsEHv1tQlP1/zY+FGXlL7ssVHzc/L4t8h2BcMYIli8QoLniyG3UJnNQX6tnu5Ieje7cjODXgnbIuszMlYifV7AoPP098x0HNj20qZyBuCPTVqst7qNzR0Q9DXzWQuqyEIXyfnDIx6i/NQrEFDhrqsTTfm5cwEw5qcXjOzDtMQnD0aArgqFq+s+EwLmC4s08VVv3vG5h8dK3MyZvosG/7px4YiaRb0x4b03Ni2UibymrWnRh3UEKRfd9J6mT2vzMvm/6IUa1CaobC+ThvIUmas49NzjGzREJy1QkPQhuFBFyN+sDhesXjpdyOyAqaLU/e43BD0hYoGFi0rczLWSX9/QOTNQPb7A4LfIcAepUzkDcGeGnVQQ6DrX75e58/bHdMbPZyvYg3SGZLHQ07mMyMb+WnjuGcdpiE4e8U7BCEQbUAifqiooVi8rNuToYD12eu/7jw1uwdjcZVjSUHSGZ4WOGyBlTkZq0XPjW0rZUI3BKJYoyabK9mwlRqCpP4Fu7Y+lhqCVv9my3j+zJ0KnLxiDTI26DEnkptiZrK1dhSyNrcOG89HQ3Beln9kCKiADRS8WZmTsVr03Ng2MgFP5A210BDAFcUL3qzMyVgtem5sG5mAJ/KGWmgI4IriBW9W5mSsFj03to1MwBN5Qy00BHBF8YI3K3MfP34M48eSefTc2DbJhTUOrIG8oRYaAriieMGblbn379+H8WPJPHpubJvkwhoH1kDeUAsNAVxRvODNyty7d++aDx8+hGNvJdfLPHpubJtkwxoH1kDeUAsNAVxRvOCtlDnZzMs7/Id+fEjOl+toBmCRjFjjwBrIG2qhIYArihe8kTl4Im/wRN5QCw0BXFG84I3MwRN5gyfyhlpCQyCBAgAAALA93CGAKwmdNQ6shczBE3mDJ/KGWmgI4IriBW9kDp7IGzyRN9RCQwBXFC94K2WOf2UIa5CMWOPAGsgbaqEhgCuKF7xZmZPNPP8fAqxBsmGNA2sgb6iFhgCuKF7wZmVO3uGX8WPJPHpubJvkwhoH1kDeUAsNAVxRvODNytyhHxMqkXn03Ng2yYU1DqyBvKEWGgK4onjBm5U5GatFz41tIxPwRN5QCw0BXFG84M3KnIzVoufGtpEJeCJvqIWGAK4oXvBmZU7GatFzY9vIBDyRN9SyrCH4smteXp6au0/GMeAAxeL16a55enlpc5bbfTHOfZObZld1PpwLK3Mylvl83zy/vjavj7f5+K+PzauMR/p4S8+NbVs/E1LLWI/RKeZN9m3f75qrZOzmQdbVXXOTjAHRgobgqrn7LiGiAOF4xeIVGgJVqGKT8HCTnwscwMqcjEXX356b1x/3zf2jveEfXTf3P16b52/X2bieG9u2fiZoCDAq5k01BFdfnyYNApDa3xBIqB52FCBUUSxeVkMQsPjhOFbmZCyQOwN9E3C7tyHozqEhwJz1M0FNxKiYt7QhCJ/y4M4A5u1pCGLhoQChjmLxKjYE3W3Op69X/eN4x6qX3D0I74C0j7vboh193fiRIcm0dR4ujZU5GdP2NwS3zePrc3P/OR/Xc2Pb7EzE+pPUnVC70nqWr7GhnsVzW3ntmjuXjd+WFGtQbAhm32wb8zXePVDjQcybWn/Tefvnu0mzyN39szLbEIwbsWkBAt6iWLxmGoK40Y/FqLTJj4visHCGd0XyQhaP6Sbj5gsNwaWyMidjWqkhCB8p4ncIsJCdibiRijUubrrGdTW8kTFsoNrzH0of98jX4/xYWi+7x7hsxRoUNuhP7bpa2Lu1x/UbZOPjUbZWtuv0Tq2/w7Gw3ubnykd+rTlxmsoNQd/tWQUIeKti8VrSEFjnSE77xW+6EKZNwLQhYNHcBitzMqYt+chQ/H2D62RMz41tszOR1x8xqUHZmqtktS9dj6fzdsftWorLU6xBYYPeNgTppn1G/iZZby6TrWzNNc4158TJshuCUHzSBoCGAHUUi9dMQzAUlVDg5F01pS9ChzQEcd70+vE6XBIrczKmLWkIun+N6LG5Tcb03Ng2OxPT+iP1Ktss6Q3VpN5ZDYF8nZ4TsV5vRbEGDXnqMjLdmHeZTHOTnVNYk4d1M6IhuBhmQxA2VukPPMEPF8coFq9SQ5COy9czm/dDG4IoXEdTcLGszMmYtqQhsM7Rc2Pb7Ewc2BDozVVWH9OGQOZl879lxRqUZijkJ83fNI/55t1eL/UGP1tzaQjO3p5fKo64Q4A6isXLagikwBhFrFRgsuIUpEVNfZ18PtcqZLgcVuZkrCO/KNxu8rV+05/9/kAyntJzY9vsTEw3WHMNga5l4bHZEPTHqF+bVaxBel0L62nMjd7T5XcRwl2AbC0VOsPdYxqCy0FDAFfF4tW/g5HdkTIXua5wpefFArW8IegL3jCHcWcCF8PKnIzVoufGttmZOKwh0HXu6WFXuEPQyetZa7KZw6Uq1iBjg941ll0O49edXbOLm/fQOCRZ6oXsZsee2muSNZeG4OwtbAiAOthAwZuVORmrRc+NbSMT8ETeUAsNAVxRvODNypyM1aLnxraRCXgib6iFhgCuKF7wZmVOxmrRc2PbyAQ8kTfUQkMAVxQveLMy9/HjxzB+LJlHz41tk1xY48AayBtqoSGAK4oXvFmZe//+fRg/lsyj58a2SS6scWAN5A210BDAFcUL3qzMvXv3rvnw4UM49lZyvcyj58a2STascWAN5A210BDAFcUL3kqZk828vMN/6MeH5Hy5jmYAFsmINQ6sgbyhFhoCuKJ4wRuZgyfyBk/kDbXQEMAVxQveyBw8kTd4Im+oJTQEEigAAAAA28MdAriS0FnjwFrIHDyRN3gib6iFhgCuKF7wRubgibzBE3lDLTQEcEXxgrdS5vhXhrAGyYg1DqyBvKEWGgK4onjBm5U52czz/yHAGiQb1jiwBvKGWmgI4IriBW9W5uQdfhk/lsyj58a2SS6scWAN5A210BDAFcUL3qzMHfoxoRKZR8+NbZNcWOPAGsgbaqEhgCuKF7xZmZOxWvTc2DYyAU/kDbXQEMAVxQverMzJWC16bmwbmYAn8oZaaAjgiuIFb1bmZKwWPTe2jUzAE3lDLTMNwU2ze3lpXhJPX6+M84DlisXr013zpPL28v2uuZJjX3bj1zOuvj4tOg/bYmVOxiZ+fWxeX1+b18fbcezzffMsY6n0eEvPjW2by8TNQ1/bHm7M42sIddHx+eCrmDdj3ezyt2tukjEgKjcEYYNGcFBXsXjN5W1hQwBYrMzJWO62eXx9bh4fn6cNwY/75jo7N6fnxrYVM/GT6hgNwWVbmjfeMMM+8w0B4UFlxeJFQ4CVWJmTsdTtY/fO//U3GgIcp5SJn7UxpyG4bMUalK6b8jVv8GKPckPAJgwrKBavRQ3BVXP3/aXZfUmPJ2NZZvvxrzLv+PGjsDgmH0vK58IlsjInY4PwUaHH5rb9moYAx7IyMXxUSNWdvB4l9a+vZTfD8afm7lM/Hs/PNvnqI77J2j1tCPJz+SjweSvWoLgeFtfWUmamHxcf8tevq+P4XGZbNKJnZb4hGH7o/GBRR7F4haKV5K01LFSxsLVfTxa35Fj2dSxcw+N+7GF8HObKjuMSWZmTsc51c//jtXn8tXtsNgTZ7xB0jcN4PQ0BcqVM6Nql6092vF9/Yw0Mx6QuxuOhXsZNWnf++OZGt6HLmo7hefNj3eNkHpydYg0K6+FTnhN1vJSZlDSzw1rc5m43NJDdGput00lm45puzYnTNPNLxal+c5VuxIA3KBav4rsYrVDY+oVTnZcVq/S8PrOzxWjuOXExrMzJmNANwKQhUMJx1RToubFtpUzkG3OrPsmmrK9HWS1rhVqVbuzm61taFyeNhnoTRI4PNRRnp1iDwga9/dmmm/YZ2VoaGXlJ7cuWOSdO1sKGoMXmCRUUi9fShqAlRaZbCJMFdHJeYcEMRXK8C8HnKi+flTkZi3cHsn9BaPDc3H8eN/2Dz3LHgIYAZaVMWO/U57VI9Jv+yeZK1bpJfesep3NZDUH4OjlnMHxfODfFGjRkqMvadGNezkxQWJNl/U2voSG4HIc1BOqHDRyqWLwOaAjCYylC8b/meUZDoOehyd0EK3MyZpm/Q9A3EOq4nhvbVspE3hBIfZr5qI6uVbMNwbTWpRuxybu4ac3E2SvWoDRDYa2bNpClzJjr5+QcI1tZZmkIzk2xIbj6ejcpPvxgcaxi8TqkIegXx11bbLKClZ03LWj5gtw/piG4eFbmZMxifoQouXPw/O06O1/oubFtpUyY9UdtoAaFmmc3BHIsbS7yd4Tz5+2O6Y0ezlexBukMyeMhJ/OZkY38tHHUa2r3mIbgcsw0BLJZGm8L8UNFDcXi1b+DkWZu2KwXCs1kMc3OmzYEsegNmX7YcYdgA6zMyVgtem5sWykTuiEQoY4lNam8uZLaVWoI9HrdvVliNwStSa2duVOBk1esQca6GXMiuSlmRq4bxkcha9mxp/aaJFvG89EQnJflHxkCKmADBW9W5mSsFj03to1MwBN5Qy00BHBF8YI3K3MyVoueG9tGJuCJvKEWGgK4onjBm5W5jx8/hvFjyTx6bmyb5MIaB9ZA3lALDQFcUbzgzcrc+/fvw/ixZB49N7ZNcmGNA2sgb6iFhgCuKF7wZmXu3bt3zYcPH8Kxt5LrZR49N7ZNsmGNA2sgb6iFhgCuKF7wVsqcbOblHf5DPz4k58t1NAOwSEascWAN5A210BDAFcUL3sgcPJE3eCJvqIWGAK4oXvBG5uCJvMETeUMtoSGQQAEAAADYHu4QwJWEzhoH1kLm4Im8wRN5Qy00BHBF8YI3MgdP5A2eyBtqoSGAK4oXvJUyx78yhDVIRqxxYA3kDbXQEMAVxQverMzJZp7/DwHWINmwxoE1kDfUQkMAVxQveLMyJ+/wy/ixZB49N7ZNcmGNA2sgb6iFhgCuKF7wZmXu0I8Jlcg8em5sm+TCGgfWQN5QCw0BXFG84M3KnIzVoufGtpEJeCJvqIWGAK4oXvBmZU7GatFzY9vIBDyRN9RCQwBXFC94szInY7XoubFtZAKeyBtq2dsQ3Dy8NC8vvYcb8xxgqWLx+nTXPL3smhvrWHDT7NoM7r5Yx4AyK3MyNvj1sXl9fe09N/efk2O928fyMT03tm0uE8N66riWXn19Yu2+YHN5Cz/7uH9rPX29Ms9LhWu+3zVXxrFjZHvJYG6998FrIzfTEFw1d9/bHxp/WaioWLz2NgTA21iZk7HObfP4+tjc9o+vvz23G//xcXf8tXn8dt880xBggWImvuxW2Wjtw6bnspXyFjbg2c+93dN9rZ8DeZ4ljYY+r2tWlqz58mbgU3P3yTp2HF4buXJD8JOKFy5bcbGkIcBKrMzJmOlzvvG/fey/VuMpPTe2rZSJn7X5YNNz2ey8dW/oetxRf2tD0H2PSzb6NAReig2B/PD4eAZqK26gVEPQvVDvurtUoRioAtc3rDdyXrwFmb2wu48YDcdobjfLypyMmUob/9J4S8+NbbMyIevpUItasY6FOjeMJ2+ITOpbvyGS8Xj+wno33fTk5y7ZzOF0lWpQyFxxs9t/AmTIwTR7XX7iuptmJm7O9Rzzm/ZpQ5Bv9M3XQtgXJM+hc63PF/33f9e/5sJrTc2Tvf7av6NsruTvbP577v9uvvZzq7+z8bnyP+cpKzQE8gdq/wBf0r/E8/gD4bQVN1BWQ5BlLham/nG/MA4v1v4Fnx4fvu4XwPExtsTKnIxNXTf3P16b18fb6TEaAixUykTcfGSPSxt3Vd+GDUs8HupdUh9n6l3+vLoWns9mBbZyDRo3ppO1r83PbtjoducNa2m/oc43t+PaHBqNJLfTTbNNn5fmf/a1YGR09vz+tTP+mdXeoZ3vJn1ttOeO31f+d7GkIUi/j8nfZSv8fZ3Ja2ymIVB/0PCXnHRhwBsUi5fVEAwFQagXdVa0OnOFaWnRwuWxMidjWvjF4R/3zbVxjIYAS5Uykdc0Vc8C2Wz0NVDXN90AmNeP0no32SypuinHqY3na38N6prAuf1bOSNGztRavXRt7TbGibnnSF8L2SZcHPja6c+3vsf8NdlLrp/+2dLvZf/fzfSa0zbbEOR/4dYYcJhi8areEHTnpwWIRW+brMzJWKr7V4TSXyZWPtMQYJlSJvKaJpuEvD51+o3DpL4lG55Ar8flepc+b/g6OWegN0U4G0trUPjZJ5mabNBjBo5sCHTG4rXTzXW057Uw2VAf+toRyesjyXr+muzJn6+//uCGwHxu/f2frgN+h8D4wwMHKhavqg3BNKvlYoRLZ2VOxqK9zYD4TEOAZUqZyGua1KiZTcJBDcF8vcueV+bVGyCctcU1KFlj9Xo4yciQvWm29jUEJeXz9rwWJhvqQ187Ofk+4p91us9oJddPv+cFDUH2Om2Fv6+5P9/pKDYEkz+Y9QcFDlQsXlUbAl1A5PGyooXLY2VOxoLPstGXhkDpf4+g+2dI9fG8MdBzY9tKmdA1LTwubVwm9W2uIZivd/nzdseyTQzOmp23Nh8PebbGvOmNbPd4yEiWPX1uq3pDsOe1MMn3G147+nXXPw5fG6+d+OfVzxOaieF84+9Gvfam15y2ckMgQhMgfxhBM4DjFTdQVRuC+EIfs7tbWLRweazMyVgtem5sWykT05oWNwsJc1MmZKNRagjm693keUOtTZ7zTDYrsJXyNslWmqdsb/fU5iXJSJa9/Q3BmKf5HKXrs6X4WmgN+Z5szo3zJ6+d7s8wnJcc614b8V8z7OTfY35t/i8GGX83Qr2+LuBfGQLWwQYK3qzMyVgtem5sG5mAJ/J24nQDdcJoCOCK4gVvVuZkrBY9N7aNTMATeTtl/R2G9A7dCaMhgCuKF7xZmZOxWvTc2DYyAU/k7ZSojyeJM2kGBA0BXFG84M3K3MePH8P4sWQePTe2TXJhjQNrIG+ohYYArihe8GZl7v3792H8WDKPnhvbJrmwxoE1kDfUQkMAVxQveLMy9+7du+bDhw/h2FvJ9TKPnhvbJtmwxoE1kDfUQkMAVxQveCtlTjbz8g7/oR8fkvPlOpoBWCQj1jiwBvKGWmgI4IriBW9kDp7IGzyRN9RCQwBXFC94I3PwRN7gibyhltAQSKAAAAAAbA93COBKQmeNA2shc/BE3uCJvKEWGgK4onjBG5mDJ/IGT+QNtdAQwBXFC95KmeNfGcIaJCPWOLAG8oZaaAjgiuIFb1bmZDPP/4cAa5BsWOPAGsgbaqEhgCuKF7xZmZN3+GX8WDKPnhvbJrmwxoE1kDfUQkMAVxQveLMyd+jHhEpkHj03tk1yYY0DayBvqIWGAK4oXvBmZU7GatFzY9vIBDyRN9RCQwBXFC94szInY7XoubFtZAKeyBtqoSGAK4oXvFmZk7Fa9NzYNjIBT+QNtRQagptm9/LSvBh2X/S5wHLF4vXprnlSWXv6emWfCxzAypyMDX59bF5fX3vPzf3n5Njgurn/YR/Xc2Pb1s+ErM9Pzd0n6xi2Zi5vV1+fDl5TwzXf75or49gxbh7y9f3lZdfcGOd5Cn/Whxvz2BYtv0PwZbdKSLAtxeIVGoK0QHRN6ZICJoWG5gElVuZkrHPbPL4+Nrf94+tvz+2mf3wchfHHx/ZcGgLMWz8TNAQYlfIWNuDZZvequftaf/O7dP3V53XNypKmYL280xDkFjYEbZC+c3cAxysulpOGoCVN6IIXKw0B5liZkzHT5/vmWW/6hzFpHmgIMG/9TNAQYGTnzW/P9taGoPsel+SYhsDLsoaAuwOopLhYGg1B/mLt7hjktz67ojfegkyKhmTWGo/F5Wt/nGJw8azMyZhp0hB0HxV6/nbdfk1DgP3sTMQNWlLHQu1Ja1i+6eneQY3H0s3ddIOUn/vzP4oBP6UaJBvw8vqm184kM9l+z8jtkL2Z9dcwbQjyHJsZ1h8lTvahxcz33/+d/PnbY+F1o+aJr6W4x8jmSv7O5r/n/u/maz+3+jsbn2v6ej1VCxqCGAjrGHCY4gaq8JGhLnfp1/Hx+AKbvGhDM1AqcN1cNALbYWVOxqb63xN4vB3H5PcLftw31+ExDQH2szMRNwmxLvV1SNWxsS615z+ozU9Ww9RGSm+UqG+bUa5B48Z0sn9r19vdsGZ25w1rqNEQpOtpyGmSt+mm2abPS3M7n+E87/rayflh/U//zN2fId0/3PRfh+vac8fvK/+7mP7Z0u+l/7tJvo/J32Ur/H2p7/9U7W8IZKOW/YGBtysWL/1OQPqCzgpUR17IpRft9EUsL9L4gpwWF1w2K3Mypt0+ts3AsPkXugGgIcB+dib0pqTfKKQbd6PODbI3TKabknzDJ8fTN1dwyfbXIMmDrKnlTEw21EMOjXypN++m662t2xgn5p4jy7Bes/ecP3kddedb32P2546S66d/tvR72f93M73mtO1tCNKNF3CsYvEyX0id8KJNC0nUv5DzF233IrXO71645/PiRB1W5mQsFZoB/cvE2b8+pCR3EfTc2DY7E9PNw2Rt1RsZeZzVMGuDJF+n50TUuK1YWoPCOprka7JBr9QQ6PU6XjvdXEf7MqzX7D3nTxoCkewLkgYgfK+6IZA/31sbAvO59fd/uvY0BPIHPo8/CM5DsXjNNAThRaZftAn9opXH2Ys0cz4vTtRhZU7GIrMZMHGHAPvZmTiwIdAbi6w+6k0J9WzLFtegJEPmJr5SQ1BSPm9fhvWaved8c1M+ku8j/lnNhiC5fvo9L2gI9D4m/H2dx2t0viGY26QBb1AsXrNZkxdheZM/edFaL8oBDcHWWJmTseCz/BKxevdf3QEY0RBgPzsT083DXEOgNyrh8VDT8hoWjs1sgHDZinlLfgdFjDnRWewe/7yGYF+Gp2v27PnZ9y/a6/VrKW0IsrnzvYZ+ntBMDOcbfzf99emfM7/mtM03BPIXq7sn4AjFDdS+5jMclxdWlLzAhmPjWPdCT84fXtTT4oLLZmVOxmrRc2Pb7ExMNw9So0oNQdxYxPr19LBL6uO0hnWbjgTr9maUatAkE+kmWbI2HHtqN8zjJvnQhsBafy1zDYGYy/Cwnk8258b5k4agb3jiecmxMG/bOKXH8+8xvzb/F4OshqCl9ioX9q8MAfWwgYI3K3MyVoueG9tGJuCJvJ043UCdMBoCuKJ4wZuVORmrRc+NbSMT8ETeTll/h+FM7tjREMAVxQverMzJWC16bmwbmYAn8nZK1MeTxBl9fI+GAK4oXvBmZe7jx49h/Fgyj54b2ya5sMaBNZA31EJDAFcUL3izMvf+/fswfiyZR8+NbZNcWOPAGsgbaqEhgCuKF7xZmXv37l3z4cOHcOyt5HqZR8+NbZNsWOPAGsgbaqEhgCuKF7yVMiebeXmH/9CPD8n5ch3NACySEWscWAN5Qy00BHBF8YI3MgdP5A2eyBtqoSGAK4oXvJE5eCJv8ETeUEtoCCRQAAAAALaHOwRwJaGzxoG1kDl4Im/wRN5QCw0BXFG84I3MwRN5gyfyhlpoCOCK4gVvpczxrwxhDZIRaxxYA3lDLTQEcEXxgjcrc7KZ5/9DgDVINqxxYA3kDbXQEMAVxQverMzJO/wyfiyZR8+NbZNcWOPAGsgbaqEhgCuKF7xZmTv0Y0IlMo+eG9smubDGgTWQN9RCQwBXFC94szInY7XoubFtZAKeyBtqoSGAK4oXvFmZk7Fa9NzYNjIBT+QNtdAQwBXFC96szMlYLXpubBuZgCfyhlpmG4Kbh5fm5aX3/a65Ms4BDlEsXp/umifJ2cPN5NjV1ydz/GhfduR6A6zMyVjnurn/8dq8vkbPzf3nfMN//e05Of7Y3CbHhJ4b2zaXiWFNXaOeFaxWP3ESinmT9a3N2tPXq8kxyaE17uOm2bXf1+5L/3jfOhz2Bk/N3Sfj2Cx5nrdct13FhiAUkeSHFAoZRQVHKhYvedF/fzJf+IcsaAcVOhqCTbAyJ2OmXx/zTb96fPvYNgU/7pvreLyl58a2FTPxk+oNDcFlm8+brKm75kYd+7kNgbLa64KG4FDFhmASGDZPqKBYvMK7ALvmTjWigoYAx7AyJ2Omz/fN89AAdHcPnr9dq+P5XQQ9N7atlImftTGnIbhsxRrUr293xpu5NASwlD8yJD+kpLM8qQDhbBWLV98Q3Pxy1dx9z7OmF7TwWG6797pbj91143gsBHo8ebckKURWvmWMhfT8WZmTMUv4eNDjbf/4tnnMNv/yuPvo0OOv4zV6bmyblYlQS4YaNH5cIq9l09p0Mxzv61lYl/vzs9rUfQxjOJZssKYNQX4u6/p5K9agYX3rft7DR3Rak/UuzZWIeRnW5fFaPabX42zecO54LF2rJx8ZSr+HJL/5xr6/9ms/b3+e/TpSDUE/f/r3gNz8LxUnPyCKBmooFq+0yISvxxdyvqC1BeFBLXZJ8ZgUunau3fC4KybD8ViI9NeBKiY4W1bmZGw0bvTz3yGIDcH4ewbSCMjHhtK7BnpubFspE3kdm9au7Hi/9sZaFY7JWpxt1PLNzrjRyTeA+fPqzSF17twVa5Be35JNfLZOhmNpBtJ1Um3e1bVdLtOGIc2XvvamubHG+6ynr43QQGeZjd9fd222Vqd7B/GlfR593eTPCMv87xAkP6DwONswAYcrFi/1ok7zp7OYUddNGgIlmystmFaRIu8XwcqcjNm65qC7A2DdEeiaA+4QoKSUibyOTTda3Qamr2W6/ugGwLx+NNm0mTWvI8fnaiZOW7EGqZ91monS14Pk2jy30825zuB4fnd8mq0Fa222ru95zslrI+qv+1I6Dq3QEKQ/gEh+EPyl4jjF4qU29l0Guxd+XpBaUkDkHYXBfEMgY9n5hcUxfR65prTY4rxYmZOxkvEOgPE7BMNdg/F8PTe2rZSJ6cZK1aWgX2MnmyQ5P62PemPUPU7ninUwfd7wdXLOIK2vOCvFGqQzlGycx3XS2GAP56Yb8v5rmTPLsLEnzJ43yeVwnXrOSdZFmvf0eea+3+55xmNynR7DHBoCuCoWr0lD0JJC0Y6FXzSOxcQscuN1uiHQj7NFuThXWoxw7qzMyZjpc/5Lw90/Oaoe868MYUYpE3lDsGc9nWySdE1KN0bTTVJa9yY1b/gecAmKNWiSoT4L7Zj8onHMh14jA1kLk2vlHMlX/G93XmFzXsiYXNuNq+uM7zNf1xc0BIOuCeiO99eFOwRz1yAqfmRo/OF1j2OQsh8acKBi8bIaglbIoXT5fRbzRbV/nFwn54/FTReP7vFwvVGIwvXyT7XpAomzZWVOxjrp7w/o3yHoZP8fAtUMCD03tq2UCbN2ldbUSW2aawjSDVN8XGgIsg0TLkGxBlkb7bgGJvkI52X56c7J1kA552GnMjhdf/N8tV/rvIfHal0Ozz9dp8fnT/Otru2v19cOzx+vC/sLdR0mZn+peNiMBdPNGnCoYvEqNASxwOgFLebyqS1S2XX9C9/8Vznasd1DsjjKMV0ww/lpccS5szInY7XoubFtpUzohkDka2yrWJuk7qX1Md8YdRuzOE+7QUreGJk871AjI+rdOSvWIGt9E/3Pf7LhTzKRHQu6dXc6rrM33dgPx4bvRW3q++8z/POo8dzsdZJs7K2GQOXZbiRa8c+oXoMYzTYEQG0nv4EqFVGcLStzMlaLnhvbRibgibyhFhoCuDrt4tW9C8JtxctiZU7GatFzY9vIBDyRN9RCQwBXp1q84q1765YozpuVuY8fP4bxY8k8em5sm+TCGgfWQN5QCw0BXFG84M3K3Pv378P4sWQePTe2TXJhjQNrIG+ohYYArihe8GZl7t27d82HDx/CsbeS62UePTe2TbJhjQNrIG+ohYYArihe8FbKnGzm5R3+Qz8+JOfLdTQDsEhGrHFgDeQNtdAQwBXFC97IHDyRN3gib6iFhgCuKF7wRubgibzBE3lDLaEhkEABAAAA2B7uEMCVhM4aB9ZC5uCJvMETeUMtNARwRfGCNzIHT+QNnsgbaqEhgCuKF7yVMse/MoQ1SEascWAN5A210BDAFcUL3qzMyWae/w8B1iDZsMaBNZA31EJDAFcUL3izMifv8Mv4sWQePTe2TXJhjQNrIG+ohYYArihe8GZl7tCPCZXIPHpubJvkwhoH1kDeUAsNAVxRvODNypyM1aLnxraRCXgib6iFhgCuKF7wZmVOxmrRc2PbyAQ8kTfUQkMAVxQveLMyJ2O16LmxbWQCnsgbaqEhgCuKF7xZmZOxWvTc2DYyAU/kDbXMNgQ3Dy/Ny0vv4cY8BzhEsXh9umueYtYSuy/GuUuFOZ+au0/GsZK3XIOTZmVOxjKf75vn19fm9fF2cuz2sR2XY73HX/Pjem5s2/qZuGl21Cj05vJ29fUpW0+fvl6Z5wGi2BCEZiBpAuQxYcKxisUrbMR3zc1kLM/hUaznwMWzMidj0fW35+b1x31zLxt/1RCEY+nYr49tU/DY3Cbn6LmxbetngoYAo1Le9B7ul1+umruvvLGLskJDYBQcNlOooLhYFvNVcfEjw5tkZU7GArkz0G/4w50A1RDI2PO363FMzqchwIz1M0FDgJGdt3bz//3IO+zYnOUNAUUIFRQXy5nN+nh3KhY5yWJ/GzS8A9KNd7dF04wmmf2yG26b6ut2X+W527Hvd82VviaMxfniPDQV58TKnIxpVkPQ3RGIHxO6bu5/TM/Rc2Pb7EwcWrumH/cYN3fTtTg/l/q0JaUaNL1DkEpzpzLTr3s3Q6aMNTSbN8m0SNbMkMuHu/65YmbL5+PnWvyRoa7g5EUIOFRxAzXTEHRFJV0843mxsIy5zHOrFs7Jc/TzZQUpvUZd3xqbk3EMp83KnIxpZkMQ3DaP/e8PZHcLenpubJudiUNrV3t+u5HKNlZDncrrUn4srZfdY1y2cg0aN/2TOwXtWrgb1rHuvGFd6zf+8XHIk2Q1Ziqso8m62J6fN6vj83XX5mvo3Pn4uWZ+qXgMUxeONkD6BwscqFi8DmgI0uIxeRekf3fDWjhLDUFejIzFdphfzYezYGVOxrTyHYLn5v6zPO4bgx/3zXVyjp4b22Zn4tDapWS1K61DpRpm11Jcnv01SPIg+7hyJrJ1TudQNwBm5kbpm2b5+mnjTbbTMdMQKDMbNmCpYvGayddYMKaFSApOVkwqNwTZNTL3nuKG02NlTsa0aUPQfUQovyvQNQXpvzSk58a22Zk4tHb1j/s35DqxdqU1Km72tHQDh0u2tAaFzXmSr9CQppkpNQQhY3PrZvc4nWu+ISifj59rcUNg/2CBwxSLV6khyMYPXVQrNATJOVJA83NxDqzMyZhWagiyseyOQUfPjW2zM3Fg7dKbsqx2pTVK5mXzv2WLa1CSIf2ufLa/O6ghmOY6nXu6b5w/Hz/XsoYgBImig+MVi9dks96SwvSSFo8DF9UqDUErzNk+T1YkcS6szMlYZ/z9gMzQBOjjeTMg9NzYNjsTh9UuvZEKj82GoD9GbdqsYt6S30ERY050FrvHb2sI9Hopj+cagvnz8XMVG4KuAMVbOmqDBLxRcQMVNuvjLcRgssgdtqhOi09ymzQUqel81jUUrfNmZU7GatFzY9vsTLyldo218Olhl7yZMVPXomwThktWqkGTTKTrqWRtOPbU7B6SjftBDYHeK+7aueYagvnz8XMt/x0CoILz3EBZTQLOhZU5GatFz41tIxPwRN5QCw0BXJ1j8QrvtPCO29myMidjtei5sW1kAp7IG2qhIYCrsype8bbq5KNLOCdW5j5+/BjGjyXz6LmxbZILaxxYA3lDLTQEcEXxgjcrc+/fvw/jx5J59NzYNsmFNQ6sgbyhFhoCuKJ4wZuVuXfv3jUfPnwIx95Krpd59NzYNsmGNQ6sgbyhFhoCuKJ4wVspc7KZl3f4D/34kJwv19EMwCIZscaBNZA31EJDAFcUL3gjc/BE3uCJvKEWGgK4onjBG5mDJ/IGT+QNtYSGQAIFAAAAYHv+5De/+Y3ZKQAAAAC4dL80/x/BnTbf2vLmQwAAAABJRU5ErkJggg==;" parent="WIyWlLk6GJQsqaUBKTNV-1" vertex="1">
          <mxGeometry x="1107" y="504" width="772" height="321" as="geometry" />
        </mxCell>
      </root>
    </mxGraphModel>
  </diagram>
</mxfile>
